<svg width="146" height="35" viewBox="0 0 146 35" fill="none" xmlns="http://www.w3.org/2000/svg">
<path d="M36.6916 20.984C36.5082 20.9973 36.3477 20.854 36.3378 20.6673L35.722 10.8807C35.7089 10.694 35.8497 10.5307 36.0332 10.5207C37.9692 10.394 39.6366 11.8873 39.7611 13.8573L39.9708 17.194C40.0953 19.1573 38.6277 20.8573 36.6916 20.984Z" fill="#F37B21"/>
<path d="M36.672 21.0501C36.4623 21.0501 36.2854 20.8835 36.2723 20.6668L35.6565 10.8801C35.6434 10.6568 35.8104 10.4601 36.0299 10.4468C37.9987 10.3201 39.7022 11.8435 39.8267 13.8468L40.0363 17.1835C40.0986 18.1535 39.7841 19.0901 39.1518 19.8201C38.5196 20.5501 37.6482 20.9868 36.6949 21.0468C36.6884 21.0501 36.6786 21.0501 36.672 21.0501ZM36.2625 10.5735C36.1872 10.5735 36.1118 10.5768 36.0365 10.5801C35.9644 10.5835 35.8989 10.6168 35.853 10.6735C35.8072 10.7268 35.781 10.7968 35.7875 10.8701L36.4034 20.6568C36.4132 20.8068 36.541 20.9235 36.6884 20.9101C37.6056 20.8501 38.4475 20.4301 39.0536 19.7268C39.6629 19.0235 39.9642 18.1235 39.9053 17.1868L39.6956 13.8501C39.6367 12.9168 39.2239 12.0601 38.5327 11.4435C37.9005 10.8801 37.1011 10.5735 36.2625 10.5735Z" fill="#F37B21"/>
<g opacity="0.35">
<path opacity="0.35" d="M39.8725 15.6235L39.9707 17.1902C40.0952 19.1569 38.6276 20.8569 36.6916 20.9835C36.5081 20.9969 36.3476 20.8535 36.3378 20.6635L36.174 18.0602C36.233 18.1769 36.3542 18.2502 36.4918 18.2435L36.7211 18.2269C38.2476 18.1302 39.4859 17.0469 39.8725 15.6235Z" fill="#371A45"/>
</g>
<path d="M4.28303 12.58C4.46648 12.5666 4.62699 12.71 4.63682 12.8966L5.25268 22.6833C5.26579 22.87 5.12492 23.0333 4.94148 23.0433C3.00544 23.17 1.33803 21.6766 1.21355 19.7066L1.00389 16.3733C0.879407 14.4033 2.34699 12.7066 4.28303 12.58Z" fill="#F37B21"/>
<path d="M4.71251 23.1232C3.8444 23.1232 3.01234 22.8065 2.35389 22.2165C1.63647 21.5732 1.20734 20.6865 1.14837 19.7165L0.938715 16.3799C0.876474 15.4099 1.19096 14.4732 1.8232 13.7432C2.45544 13.0132 3.32682 12.5765 4.28009 12.5165C4.50285 12.5065 4.69285 12.6732 4.70596 12.8965L5.32182 22.6832C5.32837 22.7932 5.29234 22.8965 5.22354 22.9799C5.15147 23.0632 5.05647 23.1099 4.94837 23.1165C4.86647 23.1199 4.79113 23.1232 4.71251 23.1232ZM4.28665 12.6465C3.3694 12.7065 2.52751 13.1265 1.92147 13.8299C1.31216 14.5332 1.01078 15.4332 1.06975 16.3699L1.2794 19.7065C1.33837 20.6399 1.75113 21.4965 2.44234 22.1132C3.13354 22.7299 4.0213 23.0399 4.93854 22.9799C5.01061 22.9765 5.07613 22.9432 5.12199 22.8865C5.16785 22.8332 5.19406 22.7632 5.18751 22.6899L4.57165 12.9032C4.56182 12.7532 4.43734 12.6365 4.28665 12.6465Z" fill="#F37B21"/>
<g opacity="0.35">
<path opacity="0.35" d="M5.08265 19.9699L5.25299 22.6866C5.2661 22.8732 5.12524 23.0366 4.93851 23.0466C3.92299 23.1132 2.97955 22.7332 2.29489 22.0699C1.67575 21.4732 1.26955 20.6432 1.21058 19.7099L1.12213 18.3032C1.74782 19.4999 3.02541 20.2799 4.44386 20.1899L4.79437 20.1666C4.92868 20.1599 5.03351 20.0799 5.08265 19.9699Z" fill="#371A45"/>
</g>
<path d="M20.535 34.237C29.8072 34.237 37.3238 26.5885 37.3238 17.1536C37.3238 7.71878 29.8072 0.0703125 20.535 0.0703125C11.2628 0.0703125 3.74622 7.71878 3.74622 17.1536C3.74622 26.5885 11.2628 34.237 20.535 34.237Z" fill="#F37B21"/>
<path d="M20.5384 34.3033C20.4958 34.3033 20.4565 34.3033 20.4172 34.3033C11.1236 34.2367 3.61533 26.4867 3.68085 17.03C3.74636 7.61333 11.2972 0 20.5352 0C20.5777 0 20.6171 0 20.6564 0C25.1574 0.0333333 29.38 1.84667 32.5412 5.11C35.7024 8.37333 37.4255 12.6933 37.3927 17.2733C37.3239 26.69 29.7764 34.3033 20.5384 34.3033ZM20.5319 0.136667C16.1127 0.136667 11.9491 1.87333 8.79774 5.03333C5.61688 8.22333 3.84791 12.4833 3.81516 17.0267C3.7824 21.57 5.4924 25.8567 8.6274 29.0933C11.7624 32.33 15.9489 34.13 20.4139 34.1633C24.8757 34.1933 29.0917 32.4567 32.2726 29.2667C35.4534 26.0767 37.2224 21.8167 37.2551 17.2733C37.2879 12.73 35.5779 8.44333 32.4429 5.20667C29.3079 1.97 25.1214 0.17 20.6564 0.136667C20.6138 0.136667 20.5712 0.136667 20.5319 0.136667Z" fill="#F37B21"/>
<path d="M36.8586 17.3299C36.8848 20.5999 35.866 23.6465 34.1003 26.1732C32.7769 28.0665 27.3029 31.4099 20.5153 31.5265C14.2191 31.6365 8.46345 28.2665 7.11052 26.3932C5.30552 23.8965 4.24086 20.8665 4.21466 17.5965C4.14586 8.93987 11.4248 5.2932 20.44 5.21987C29.4552 5.14654 36.7931 8.6732 36.8586 17.3299Z" fill="#08171C"/>
<path d="M20.211 31.9035C13.8329 31.9035 8.20501 28.5401 6.81277 26.6135C4.89639 23.9601 3.87105 20.8435 3.84484 17.5968C3.81208 13.3735 5.45002 10.1001 8.71605 7.87679C11.5693 5.93013 15.6248 4.88346 20.4404 4.84346C25.2559 4.80346 29.3245 5.78679 32.2105 7.68679C35.5093 9.86013 37.1997 13.1035 37.2324 17.3268C37.2586 20.5701 36.2792 23.7068 34.4054 26.3901C33.1048 28.2501 27.6997 31.7768 20.5223 31.9001C20.4174 31.9035 20.3126 31.9035 20.211 31.9035ZM20.686 5.59346C20.6042 5.59346 20.5223 5.59346 20.4436 5.59346C15.6478 5.63346 4.50001 6.88013 4.58519 17.5901C4.60812 20.6768 5.5876 23.6401 7.40898 26.1668C8.68329 27.9335 14.1704 31.1501 20.2176 31.1501C20.3159 31.1501 20.4109 31.1501 20.5092 31.1468C27.336 31.0301 32.6135 27.6501 33.7993 25.9535C35.5847 23.4001 36.515 20.4168 36.4888 17.3335C36.4069 6.80012 25.6064 5.59346 20.686 5.59346Z" fill="#08171C"/>
<path d="M30.7784 11.8136C29.3075 10.5002 27.6958 10.4936 25.989 10.8202C26.0316 10.6602 26.0611 10.5502 26.0546 10.5736C25.0751 10.9469 24.0661 11.3736 23.0309 11.7002C22.6313 11.8269 22.1628 11.7169 21.7239 11.7202C21.5011 11.7236 21.2784 11.7302 21.0556 11.7469C19.9123 11.8302 18.7527 12.0769 17.629 11.9636C16.4727 11.8469 15.3523 11.3869 14.209 10.9202C14.304 11.0469 14.399 11.1769 14.5497 11.3736C12.807 11.2836 11.1723 11.3502 9.93077 12.7569C9.74732 11.8636 10.1634 10.8102 11.0315 10.0902C12.9478 8.50023 14.9461 8.7869 17.0066 9.85356C16.8494 9.68023 16.6921 9.5069 16.5349 9.33356C16.584 9.25023 16.5808 9.2569 16.6299 9.17023C17.2097 9.33356 17.8223 9.43023 18.3661 9.68023C19.6699 10.2802 20.882 10.1836 22.1039 9.45356C22.5854 9.1669 23.1489 9.0169 23.673 8.8069C23.7287 8.88356 23.7221 8.87356 23.7778 8.95023L23.2504 9.64356C25.1013 8.36356 27.0209 7.77356 29.1044 9.0369C30.0675 9.63023 30.6571 10.4969 30.7784 11.8136Z" fill="#F37B21"/>
<path d="M24.1121 14.2738L25.0851 14.2238C24.5282 13.8804 23.9811 13.5438 23.4832 13.2371C24.6461 13.3471 25.8188 13.4538 26.9556 13.5604C26.9654 13.5471 26.8737 13.6771 26.7787 13.8038C26.8311 13.8804 26.9359 13.9004 27.0113 13.8471C27.5157 13.4838 28.0235 13.1171 28.5083 12.7671C28.7245 13.5038 28.5149 14.1371 27.863 14.5738C26.8999 15.2204 25.1145 15.0871 24.1121 14.2738Z" fill="#F37B21"/>
<path d="M12.1651 13.5801C12.7645 13.9367 13.3313 14.2767 13.9013 14.6167C13.9635 14.5267 13.9504 14.4034 13.8718 14.3267C13.8063 14.2601 13.7539 14.2134 13.7473 14.2034C14.8382 14.0067 15.9978 13.8001 17.0821 13.6034C16.9839 13.6967 16.7808 13.9201 16.5482 14.1034C16.2959 14.3001 16.0175 14.4634 15.5949 14.7434C16.0863 14.6867 16.3975 14.6501 16.7283 14.6101C16.024 15.5167 13.957 15.8467 13.0266 15.3467C12.3256 14.9634 12.0209 14.3601 12.1651 13.5801Z" fill="#F37B21"/>
<path d="M21.6323 24.2101C21.6323 24.2101 25.7861 23.2234 28.1874 21.1467C27.9122 20.4767 27.4601 19.8034 27.5158 19.9734C26.9884 18.6101 26.3987 18.3201 26.1006 18.2767C25.606 18.8301 25.1572 19.3301 24.7084 19.8301C24.6068 19.7467 24.6494 19.7801 24.5479 19.6967C24.6101 19.6067 24.6756 19.5201 24.7379 19.4301C25.8189 17.9101 25.5306 16.2767 23.9844 15.2601C23.457 14.9134 22.9132 14.5867 22.3563 14.2834C21.7142 13.9334 21.0886 14.1734 20.8101 14.8534C20.6955 15.1301 20.6136 15.4201 20.4661 15.8534C20.3122 15.5134 20.2172 15.3067 20.1255 15.1001C19.7192 14.1867 19.087 14.0101 18.2779 14.5934C17.8586 14.8967 17.436 15.1934 17.0298 15.5101C15.5163 16.6867 15.323 18.3434 16.5187 19.8634C16.6596 20.0434 16.8103 20.2201 16.9577 20.4001C16.8987 20.4667 16.9151 20.4467 16.8594 20.5101C16.3549 20.1534 15.8537 19.7934 15.3296 19.4201C14.3567 20.8767 13.8751 22.4434 13.8227 24.1234L13.9537 24.2267C13.957 24.2301 17.7275 25.3501 21.6323 24.2101ZM24.0073 16.9801C22.6184 18.6234 21.8584 18.7801 21.0755 17.5667C22.0811 17.5134 22.8444 16.5267 24.0073 16.9801ZM20.0108 17.6201C19.3917 18.9201 18.5072 18.8167 17.0756 17.3234C18.1501 16.7467 19.0117 17.6667 20.0108 17.6201Z" fill="#F37B21"/>
<path d="M27.6304 23.2601C25.3209 23.9701 23.5912 24.3234 22.1466 24.5301C20.1385 25.0067 17.888 25.3467 15.5686 25.3501C15.5064 25.3667 15.4409 25.3801 15.3754 25.3967C14.5138 25.6501 14.7071 25.5101 14.088 25.8667L17.5767 26.1001C17.6816 26.1067 17.7012 26.2534 17.6062 26.2901C17.0559 26.5067 16.5612 26.7034 16.0076 26.9234C17.0493 28.1334 18.1631 28.9567 19.5914 29.2267C21.5209 29.5934 23.375 29.2534 25.1374 28.4567C26.0973 28.0234 27.1783 26.8334 27.5747 25.8467C28.0955 24.5467 28.8981 22.8701 27.6304 23.2601Z" fill="#F37B21"/>
<path d="M62.1944 18.5613C62.1944 19.093 62.1265 19.5729 61.9908 20.001C61.8619 20.4222 61.6889 20.795 61.4717 21.1196C61.2546 21.4441 61.0001 21.7203 60.7083 21.9481C60.4165 22.176 60.1145 22.3624 59.8024 22.5074C59.4903 22.6524 59.1713 22.7595 58.8456 22.8285C58.5267 22.8976 58.2247 22.9321 57.9397 22.9321H47.7304V20.2392H57.9397C58.4486 20.2392 58.8422 20.0873 59.1204 19.7835C59.4054 19.4796 59.5479 19.0723 59.5479 18.5613C59.5479 18.3127 59.5106 18.0849 59.436 17.8777C59.3613 17.6706 59.2527 17.491 59.1102 17.3391C58.9745 17.1872 58.8049 17.0698 58.6013 16.987C58.4045 16.9041 58.184 16.8627 57.9397 16.8627H51.8528C51.4253 16.8627 50.9639 16.7867 50.4685 16.6348C49.9731 16.476 49.5117 16.224 49.0842 15.8788C48.6635 15.5335 48.3106 15.0812 48.0256 14.5219C47.7474 13.9627 47.6083 13.2791 47.6083 12.4712C47.6083 11.6633 47.7474 10.9832 48.0256 10.4308C48.3106 9.87152 48.6635 9.41925 49.0842 9.07401C49.5117 8.72186 49.9731 8.46983 50.4685 8.31792C50.9639 8.15911 51.4253 8.0797 51.8528 8.0797H60.861V10.7726H51.8528C51.3507 10.7726 50.9571 10.928 50.6721 11.2387C50.3939 11.5494 50.2547 11.9602 50.2547 12.4712C50.2547 12.9891 50.3939 13.3999 50.6721 13.7037C50.9571 14.0006 51.3507 14.1491 51.8528 14.1491H57.9397H57.96C58.2451 14.156 58.547 14.1974 58.866 14.2734C59.1849 14.3424 59.5004 14.4529 59.8126 14.6048C60.1315 14.7567 60.4335 14.9501 60.7185 15.1848C61.0035 15.4127 61.2546 15.6889 61.4717 16.0134C61.6956 16.3379 61.8721 16.7108 62.001 17.132C62.1299 17.5532 62.1944 18.0296 62.1944 18.5613Z" fill="#FFFAF5"/>
<path d="M79.712 16.9248C79.712 17.8294 79.5593 18.6614 79.254 19.421C78.9486 20.1805 78.5245 20.8365 77.9816 21.3888C77.4388 21.9412 76.7941 22.3728 76.0477 22.6835C75.308 22.9873 74.5005 23.1392 73.6251 23.1392H70.0422C69.1668 23.1392 68.3559 22.9873 67.6095 22.6835C66.863 22.3728 66.2184 21.9412 65.6755 21.3888C65.1327 20.8365 64.7052 20.1805 64.393 19.421C64.0876 18.6614 63.935 17.8294 63.935 16.9248V14.0869C63.935 13.1893 64.0876 12.3607 64.393 11.6012C64.7052 10.8347 65.1327 10.1788 65.6755 9.6333C66.2184 9.08091 66.863 8.64936 67.6095 8.33864C68.3559 8.02792 69.1668 7.87256 70.0422 7.87256H73.6251C74.5005 7.87256 75.308 8.02792 76.0477 8.33864C76.7941 8.64936 77.4388 9.08091 77.9816 9.6333C78.5245 10.1788 78.9486 10.8347 79.254 11.6012C79.5593 12.3607 79.712 13.1893 79.712 14.0869V16.9248ZM77.0655 14.0869C77.0655 13.5553 76.9807 13.0754 76.8111 12.6473C76.6482 12.2123 76.4141 11.8429 76.1087 11.539C75.8102 11.2283 75.4471 10.9901 75.0196 10.8244C74.5989 10.6518 74.1341 10.5655 73.6251 10.5655H70.0422C69.5265 10.5655 69.0549 10.6518 68.6274 10.8244C68.2066 10.9901 67.8436 11.2283 67.5382 11.539C67.2329 11.8429 66.9954 12.2123 66.8257 12.6473C66.6629 13.0754 66.5814 13.5553 66.5814 14.0869V16.9248C66.5814 17.4565 66.6629 17.9399 66.8257 18.3749C66.9954 18.803 67.2329 19.1724 67.5382 19.4831C67.8436 19.7869 68.2066 20.0251 68.6274 20.1978C69.0549 20.3635 69.5265 20.4463 70.0422 20.4463H73.6048C74.1205 20.4463 74.5887 20.3635 75.0094 20.1978C75.4369 20.0251 75.8034 19.7869 76.1087 19.4831C76.4141 19.1724 76.6482 18.803 76.8111 18.3749C76.9807 17.9399 77.0655 17.4565 77.0655 16.9248V14.0869Z" fill="#FFFAF5"/>
<path d="M95.7333 22.9321H83.6614C83.4713 22.9321 83.2949 22.8976 83.1321 22.8285C82.9692 22.7595 82.8267 22.6662 82.7046 22.5489C82.5892 22.4246 82.4976 22.2796 82.4297 22.1139C82.3619 21.9481 82.3279 21.7686 82.3279 21.5753V8.0797H84.9744V20.2392H95.7333V22.9321Z" fill="#FFFAF5"/>
<path d="M111.999 22.9321H109.352V19.2863H100.049V22.9321H97.4026V15.5059C97.4026 14.4218 97.5859 13.4241 97.9523 12.5126C98.3187 11.6012 98.8277 10.8175 99.4791 10.1615C100.131 9.50556 100.901 8.9946 101.79 8.62864C102.679 8.26268 103.649 8.0797 104.701 8.0797H110.666C110.849 8.0797 111.022 8.11423 111.185 8.18328C111.348 8.25233 111.49 8.34899 111.612 8.47328C111.734 8.59757 111.829 8.74257 111.897 8.90829C111.965 9.07401 111.999 9.25008 111.999 9.43651V22.9321ZM100.049 16.5934H109.352V10.7726H104.701C104.619 10.7726 104.446 10.7864 104.182 10.814C103.924 10.8347 103.622 10.8934 103.276 10.9901C102.936 11.0868 102.577 11.2352 102.197 11.4355C101.817 11.6357 101.467 11.9119 101.148 12.2641C100.829 12.6162 100.565 13.0581 100.354 13.5898C100.151 14.1146 100.049 14.7533 100.049 15.5059V16.5934Z" fill="#FFFAF5"/>
<path d="M129.629 14.2941C129.629 14.9086 129.554 15.4576 129.405 15.9409C129.255 16.4242 129.052 16.8523 128.794 17.2252C128.543 17.5912 128.251 17.9053 127.918 18.1677C127.586 18.4301 127.237 18.6442 126.87 18.8099C126.51 18.9756 126.144 19.0964 125.771 19.1724C125.404 19.2483 125.058 19.2863 124.733 19.2863H118.747V16.5934H124.733C125.072 16.5658 125.377 16.4967 125.649 16.3863C125.927 16.2689 126.164 16.1135 126.361 15.9202C126.558 15.7269 126.711 15.4955 126.819 15.2262C126.928 14.9501 126.982 14.6393 126.982 14.2941V13.0719C126.948 12.7336 126.877 12.4229 126.768 12.1398C126.66 11.8567 126.51 11.615 126.32 11.4148C126.137 11.2145 125.913 11.0592 125.649 10.9487C125.384 10.8313 125.079 10.7726 124.733 10.7726H118.768C118.415 10.7726 118.147 10.8658 117.964 11.0523C117.78 11.2387 117.689 11.508 117.689 11.8601V22.9321H115.042V11.8601C115.042 11.1696 115.165 10.5827 115.409 10.0994C115.66 9.61604 115.969 9.22591 116.335 8.929C116.708 8.63209 117.112 8.41804 117.546 8.28685C117.981 8.14875 118.381 8.0797 118.747 8.0797H124.733C125.33 8.0797 125.866 8.15911 126.341 8.31792C126.816 8.46983 127.233 8.67698 127.593 8.93936C127.959 9.19484 128.268 9.49175 128.519 9.83009C128.777 10.1684 128.987 10.524 129.15 10.8969C129.32 11.2629 129.442 11.6357 129.517 12.0155C129.591 12.3883 129.629 12.7405 129.629 13.0719V14.2941Z" fill="#FFFAF5"/>
<path d="M143.899 16.8627H135.542V14.1491H143.899V16.8627ZM145.09 22.9321H135.542C135.176 22.9321 134.776 22.8665 134.341 22.7353C133.907 22.6041 133.503 22.3901 133.13 22.0931C132.764 21.7893 132.455 21.3992 132.204 20.9228C131.959 20.4394 131.837 19.8491 131.837 19.1517V9.43651C131.837 9.25008 131.871 9.07401 131.939 8.90829C132.007 8.74257 132.099 8.59757 132.214 8.47328C132.336 8.34899 132.479 8.25233 132.641 8.18328C132.804 8.11423 132.981 8.0797 133.171 8.0797H145.09V10.7726H134.484V19.1517C134.484 19.5038 134.575 19.7731 134.759 19.9595C134.942 20.146 135.21 20.2392 135.563 20.2392H145.09V22.9321Z" fill="#FFFAF5"/>
</svg>
