<svg width="48" height="48" viewBox="0 0 48 48" fill="none" xmlns="http://www.w3.org/2000/svg">
<path fill-rule="evenodd" clip-rule="evenodd" d="M31.0958 4.29848C30.1335 3.72737 28.8631 4.00096 28.2582 4.90956L24.0005 11.3054L19.7429 4.90937C19.138 4.00076 17.8676 3.72715 16.9053 4.29824C15.943 4.86933 15.6532 6.06886 16.2581 6.97747L19.5698 11.9526H10C7.79086 11.9526 6 13.7461 6 15.9585V19.9644C6 21.4472 6.8044 22.7418 8 23.4344V23.9703V37.9911C8 41.3097 10.6863 44 14 44H34C37.3137 44 40 41.3097 40 37.9911V23.9703V23.4344C41.1956 22.7418 42 21.4472 42 19.9644V15.9585C42 13.7461 40.2091 11.9526 38 11.9526H28.4312L31.743 6.97773C32.3478 6.06913 32.0581 4.86959 31.0958 4.29848ZM10 19.9644H12H14H22V15.9585H14H10V19.9644ZM26 15.9585V19.9644H34H36H38V15.9585H34H26ZM22 23.9703H16H12V27.9763V37.9911C12 39.0973 12.8954 39.9941 14 39.9941H22V23.9703ZM26 39.9941V23.9703H32H36V27.9763V37.9911C36 39.0973 35.1046 39.9941 34 39.9941H26Z" fill="#676767"/>
</svg>
