<svg width="48" height="48" viewBox="0 0 48 48" fill="none" xmlns="http://www.w3.org/2000/svg">
<path fill-rule="evenodd" clip-rule="evenodd" d="M16.8565 9.46899C15.2785 11.047 15.2785 13.6054 16.8565 15.1833L21.1426 19.4691C22.7207 21.0471 25.2793 21.0471 26.8574 19.4691L31.1435 15.1833C32.7215 13.6054 32.7215 11.047 31.1435 9.46899L26.8574 5.18323C25.2793 3.60526 22.7207 3.60526 21.1426 5.18323L16.8565 9.46899ZM19.7139 12.3262L21.1426 10.8976L22.5713 9.46899L24 8.04041L25.4287 9.46899L26.8574 10.8976L28.2861 12.3262L26.8574 13.7547L25.4287 15.1833L24 16.6119L22.5713 15.1833L21.1426 13.7547L19.7139 12.3262ZM5.18357 21.1426C3.60548 22.7206 3.60548 25.279 5.18357 26.8569L9.46964 31.1427C11.0477 32.7207 13.6063 32.7207 15.1844 31.1427L19.4705 26.8569C21.0486 25.279 21.0486 22.7206 19.4705 21.1426L15.1844 16.8568C13.6063 15.2789 11.0477 15.2789 9.46964 16.8568L5.18357 21.1426ZM8.04095 23.9998L9.46964 22.5712L10.8983 21.1426L12.327 19.714L13.7557 21.1426L15.1844 22.5712L16.6131 23.9998L15.1844 25.4283L13.7557 26.8569L12.327 28.2855L10.8983 26.8569L9.46964 25.4283L8.04095 23.9998ZM16.8565 38.5305C15.2785 36.9525 15.2785 34.3941 16.8565 32.8162L21.1426 28.5304C22.7207 26.9524 25.2793 26.9524 26.8574 28.5304L31.1435 32.8162C32.7215 34.3941 32.7215 36.9525 31.1435 38.5305L26.8574 42.8163C25.2793 44.3942 22.7207 44.3942 21.1426 42.8163L16.8565 38.5305ZM21.1426 34.2448L19.7139 35.6733L21.1426 37.1019L22.5713 38.5305L24 39.9591L25.4287 38.5305L26.8574 37.1019L28.2861 35.6733L26.8574 34.2448L25.4287 32.8162L24 31.3876L22.5713 32.8162L21.1426 34.2448ZM32.8156 16.8568L28.5295 21.1426C26.9514 22.7206 26.9514 25.279 28.5295 26.8569L32.8156 31.1427C34.3937 32.7207 36.9523 32.7207 38.5304 31.1427L42.8164 26.8569C44.3945 25.279 44.3945 22.7206 42.8164 21.1426L38.5304 16.8568C36.9523 15.2789 34.3937 15.2789 32.8156 16.8568ZM31.3869 23.9998L32.8156 22.5712L34.2443 21.1426L35.673 19.714L37.1017 21.1426L38.5304 22.5712L39.9591 23.9998L38.5304 25.4283L37.1017 26.8569L35.673 28.2855L34.2443 26.8569L32.8156 25.4283L31.3869 23.9998Z" fill="url(#paint0_linear_602_2919)"/>
<defs>
<linearGradient id="paint0_linear_602_2919" x1="4" y1="3.99976" x2="49.8829" y2="12.5946" gradientUnits="userSpaceOnUse">
<stop stop-color="#FF810A"/>
<stop offset="1" stop-color="#FFAB5C"/>
</linearGradient>
</defs>
</svg>
