<svg width="48" height="48" viewBox="0 0 48 48" fill="none" xmlns="http://www.w3.org/2000/svg">
<path fill-rule="evenodd" clip-rule="evenodd" d="M26 6C26 4.89543 25.1046 4 24 4C22.8954 4 22 4.89543 22 6V12C22 13.1046 22.8954 14 24 14C25.1046 14 26 13.1046 26 12V6ZM26 36C26 34.8954 25.1046 34 24 34C22.8954 34 22 34.8954 22 36V42C22 43.1046 22.8954 44 24 44C25.1046 44 26 43.1046 26 42V36ZM4 24C4 22.8954 4.89543 22 6 22H12C13.1046 22 14 22.8954 14 24C14 25.1046 13.1046 26 12 26H6C4.89543 26 4 25.1046 4 24ZM36 22C34.8954 22 34 22.8954 34 24C34 25.1046 34.8954 26 36 26H42C43.1046 26 44 25.1046 44 24C44 22.8954 43.1046 22 42 22H36ZM9.85922 38.1422C9.07818 37.3612 9.07818 36.0949 9.85922 35.3138L14.1019 31.0712C14.8829 30.2901 16.1492 30.2901 16.9303 31.0712C17.7113 31.8522 17.7113 33.1186 16.9303 33.8996L12.6877 38.1422C11.9066 38.9233 10.6403 38.9233 9.85922 38.1422ZM31.0702 14.1004C30.2891 14.8815 30.2891 16.1478 31.0702 16.9289C31.8512 17.7099 33.1175 17.7099 33.8986 16.9289L38.1412 12.6862C38.9223 11.9052 38.9223 10.6388 38.1412 9.85779C37.3602 9.07675 36.0938 9.07675 35.3128 9.85779L31.0702 14.1004ZM38.1408 38.141C37.3597 38.9221 36.0934 38.9221 35.3123 38.141L31.0697 33.8984C30.2887 33.1173 30.2887 31.851 31.0697 31.07C31.8508 30.2889 33.1171 30.2889 33.8981 31.07L38.1408 35.3126C38.9218 36.0936 38.9218 37.36 38.1408 38.141ZM14.1014 16.9301C14.8825 17.7111 16.1488 17.7111 16.9298 16.9301C17.7109 16.149 17.7109 14.8827 16.9298 14.1017L12.6872 9.85902C11.9061 9.07797 10.6398 9.07797 9.85877 9.85902C9.07772 10.6401 9.07772 11.9064 9.85877 12.6874L14.1014 16.9301Z" fill="#676767"/>
</svg>
