<svg width="48" height="48" viewBox="0 0 48 48" fill="none" xmlns="http://www.w3.org/2000/svg">
<path fill-rule="evenodd" clip-rule="evenodd" d="M38 3.99976H10C6.68629 3.99976 4 6.68605 4 9.99976V37.9998C4 41.3135 6.68629 43.9998 10 43.9998H38C41.3137 43.9998 44 41.3135 44 37.9998V9.99976C44 6.68605 41.3137 3.99976 38 3.99976ZM8 9.99976C8 8.89519 8.89543 7.99976 10 7.99976H37.6729L26.3199 27.0727L19.4708 19.6441C19.0303 19.1663 18.3851 18.9323 17.7408 19.0167C17.0964 19.101 16.5332 19.4932 16.2306 20.0683L8 35.7063V9.99976ZM10.2605 39.9998H38C39.1046 39.9998 40 39.1043 40 37.9998V11.9106L28.3857 31.4227C28.0627 31.9653 27.5026 32.3234 26.8746 32.389C26.2467 32.4545 25.6246 32.2196 25.1967 31.7555L18.4506 24.4386L10.2605 39.9998Z" fill="url(#paint0_linear_602_2929)"/>
<defs>
<linearGradient id="paint0_linear_602_2929" x1="4" y1="3.99976" x2="49.8829" y2="12.5946" gradientUnits="userSpaceOnUse">
<stop stop-color="#FF810A"/>
<stop offset="1" stop-color="#FFAB5C"/>
</linearGradient>
</defs>
</svg>
