<svg width="146" height="25" viewBox="0 0 146 25" fill="none" xmlns="http://www.w3.org/2000/svg">
<path fill-rule="evenodd" clip-rule="evenodd" d="M21.7218 14.939C21.2858 15.2146 20.7724 15.2488 20.3821 15.0287C19.8864 14.7488 19.6138 14.0933 19.6138 13.1817V10.4543C19.6138 9.1372 19.0931 8.2 18.2224 7.94695C16.7468 7.51707 15.637 9.32256 15.2199 10.0006L12.6175 14.2201V9.06281C12.5882 7.87622 12.2029 7.16646 11.4712 6.95244C10.987 6.81098 10.2626 6.86768 9.55896 7.94451L3.72847 17.3067C2.9479 15.8249 2.541 14.1748 2.5431 12.5C2.5431 6.86037 7.06261 2.27256 12.6175 2.27256C18.1724 2.27256 22.6913 6.86037 22.6913 12.5C22.6913 12.5098 22.6937 12.5183 22.6943 12.5274C22.6943 12.5372 22.6925 12.5457 22.6931 12.5555C22.7455 13.6476 22.3919 14.5165 21.7218 14.9396V14.939ZM24.9297 12.5006V12.5V12.472L24.9291 12.4439C24.898 5.57561 19.3876 0 12.6169 0C5.82847 0 0.304688 5.60732 0.304688 12.5C0.304688 19.3921 5.82847 25 12.6175 25C15.7327 25 18.7059 23.8159 20.9882 21.6665C21.4419 21.2396 21.4687 20.5207 21.048 20.061C20.949 19.9518 20.8291 19.8634 20.6955 19.8011C20.5619 19.7388 20.4172 19.7038 20.2699 19.6981C20.1226 19.6925 19.9757 19.7162 19.8377 19.7681C19.6997 19.8199 19.5734 19.8987 19.4663 20C17.6163 21.7518 15.1653 22.7279 12.6175 22.7274C9.6431 22.7274 6.96688 21.411 5.12115 19.3232L10.3791 10.8805V14.7726C10.3791 16.6421 11.1041 17.2463 11.712 17.4232C12.3205 17.6 13.2504 17.4793 14.2266 15.8939L17.1187 11.2055C17.2114 11.0543 17.2968 10.9238 17.3748 10.811V13.1817C17.3748 14.9293 18.0748 16.3268 19.2949 17.0152C20.3949 17.636 21.7779 17.5799 22.9047 16.8689C24.2705 16.0061 25.0065 14.4165 24.9297 12.5006ZM42.0718 8.22988C42.3675 8.40976 42.6236 8.80976 42.6236 9.17012C42.6236 9.75 42.1309 10.2299 41.5791 10.2299C41.4413 10.2299 41.3035 10.1902 41.1852 10.15C40.5346 9.67012 39.7071 9.35 38.84 9.35C36.7913 9.35 35.3724 11.0299 35.3724 13.1098C35.3724 15.1902 36.7913 16.85 38.84 16.85C39.8644 16.85 40.7711 16.4299 41.4608 15.7902C41.639 15.6622 41.8523 15.5923 42.0718 15.5902C42.6236 15.5902 43.0571 16.0299 43.0571 16.5902C43.0571 16.95 42.84 17.2701 42.5644 17.45C41.5791 18.2902 40.2394 18.85 38.8602 18.85C35.7077 18.85 33.1455 16.25 33.1455 13.05C33.1455 9.85 35.7071 7.25 38.8602 7.25C40.0425 7.25 41.1651 7.60976 42.0718 8.22988ZM47.8364 10.65C49.984 10.65 51.7968 12.4701 51.7968 14.7098C51.7968 16.95 49.984 18.85 47.8364 18.85C45.5901 18.85 43.7181 16.95 43.7181 14.7098C43.7181 12.4701 45.5901 10.65 47.8364 10.65ZM47.8163 16.85C48.7626 16.85 49.5699 15.95 49.5699 14.7299C49.5699 13.5104 48.7626 12.75 47.8163 12.75C46.7919 12.75 45.9443 13.4902 45.9443 14.7299C45.9443 15.95 46.7919 16.85 47.8163 16.85ZM53.1474 17.6098V11.8902C53.1474 11.2701 53.64 10.75 54.251 10.75C54.862 10.75 55.3742 11.2701 55.3742 11.8902V17.6098C55.3742 18.2299 54.862 18.75 54.251 18.75C53.64 18.75 53.1474 18.2299 53.1474 17.6098ZM52.9705 8.59024C52.9705 7.85 53.5413 7.25 54.251 7.25C54.9797 7.25 55.5711 7.85 55.5711 8.59024C55.5711 9.30976 54.9797 9.89024 54.251 9.89024C53.5413 9.89024 52.9705 9.30976 52.9705 8.59024ZM59.6413 14.5098V17.6098C59.6413 18.2299 59.1291 18.75 58.5175 18.75C57.9071 18.75 57.4138 18.2299 57.4138 17.6098V11.6299C57.4138 11.15 57.8083 10.75 58.2815 10.75C58.7541 10.75 59.1291 11.15 59.1291 11.6299C60.0352 10.7902 60.823 10.65 61.5718 10.65C63.7986 10.65 64.784 12.3299 64.784 14.2299V17.6098C64.784 18.2299 64.2718 18.75 63.6608 18.75C63.0498 18.75 62.5571 18.2299 62.5571 17.6098V14.5098C62.5571 13.5299 62.4388 12.7098 61.0401 12.7098C60.0547 12.7098 59.6407 13.5299 59.6407 14.5098H59.6413ZM72.026 15.6902C71.7699 15.6902 71.5931 15.5701 71.4547 15.4098L68.8535 12.5902V17.6098C68.8535 18.2299 68.3413 18.75 67.7303 18.75C67.1193 18.75 66.6266 18.2299 66.6266 17.6098V7.67073C66.6585 7.587 66.7154 7.51513 66.7896 7.46494C66.8638 7.41474 66.9517 7.38866 67.0413 7.39024C67.2376 7.39024 67.3949 7.55061 67.5138 7.67073L71.6516 12.3305C71.7699 12.4707 71.9272 12.5506 72.0065 12.5506C72.0852 12.5506 72.2425 12.4707 72.3608 12.3311L76.4992 7.67073C76.6175 7.55061 76.7748 7.39024 76.9718 7.39024C77.1687 7.39024 77.3266 7.51037 77.3858 7.67073V17.6098C77.3858 18.2299 76.8931 18.75 76.2821 18.75C75.6711 18.75 75.159 18.2299 75.159 17.6098V12.5902L72.5583 15.4098C72.4199 15.5701 72.2425 15.6902 72.026 15.6902ZM82.7364 16.85C83.7413 16.85 84.5882 15.95 84.5882 14.7299C84.5882 13.5104 83.7218 12.7098 82.7364 12.7098C81.751 12.7098 80.9626 13.5299 80.9626 14.7299C80.9626 15.9098 81.751 16.85 82.7364 16.85ZM85.101 17.8701L85.0608 17.6098C84.6279 18.4695 83.248 18.85 82.3614 18.85C80.2724 18.85 78.7358 16.95 78.7358 14.7098C78.7358 12.4701 80.312 10.65 82.4797 10.65C82.8541 10.65 84.0955 10.75 85.0608 11.8902L85.1004 11.6299C85.1004 11.15 85.4748 10.75 85.948 10.75C86.4205 10.75 86.8144 11.15 86.8144 11.6299V17.8701C86.8144 18.35 86.4205 18.75 85.9474 18.75C85.4748 18.75 85.0998 18.35 85.0998 17.8701H85.101ZM92.9931 12.7098H92.7571C91.3577 12.7902 91.0821 13.5902 91.0821 14.5098V17.6098C91.0821 18.2299 90.5699 18.75 89.959 18.75C89.348 18.75 88.8553 18.2299 88.8553 17.6098V11.6299C88.8553 11.15 89.2492 10.75 89.7224 10.75C90.1955 10.75 90.5699 11.15 90.5699 11.6299C91.3974 10.85 92.0675 10.6902 92.7571 10.65H92.9736C93.5059 10.65 93.998 11.1098 93.998 11.6902C93.998 12.2299 93.5254 12.7098 92.9931 12.7098ZM101.575 17.0902C101.674 17.25 101.733 17.4299 101.733 17.6299C101.733 18.2098 101.201 18.75 100.63 18.75C100.236 18.75 99.9004 18.45 99.6443 18.1299L97.0833 15.15V17.6098C97.0833 18.2299 96.5705 18.75 95.9596 18.75C95.3486 18.75 94.8559 18.2299 94.8559 17.6098V8.53049C94.8559 7.90976 95.3486 7.39024 95.9596 7.39024C96.5705 7.39024 97.0827 7.90976 97.0827 8.53049V14.1902L99.6443 11.35C99.9004 11.05 100.216 10.75 100.61 10.75C101.162 10.75 101.674 11.2701 101.674 11.85C101.674 12.0299 101.635 12.2098 101.536 12.3701L99.5065 14.5896L101.575 17.0896V17.0902ZM105.941 12.75C105.33 12.75 104.345 13.0701 104.345 14.0098H107.557C107.557 13.05 106.532 12.75 105.941 12.75H105.941ZM108.857 15.4299H104.345C104.345 16.7701 105.625 16.9701 106.197 16.9701C106.611 16.9701 107.202 16.8902 107.655 16.6896C107.793 16.5902 108.03 16.5098 108.227 16.5098C108.719 16.5098 109.133 16.9305 109.133 17.4305C109.133 17.7701 108.916 18.0701 108.641 18.2299C107.951 18.7299 107.064 18.85 106.217 18.85C103.971 18.85 102.099 17.6305 102.099 14.8098C102.099 12.5902 103.241 10.65 105.902 10.65C108.049 10.65 109.685 12.05 109.724 14.55C109.724 15.0299 109.33 15.4299 108.857 15.4299ZM115.055 18.85H114.444C112.749 18.85 111.764 18.1098 111.764 15.45V12.7098H111.193C110.661 12.7098 110.188 12.2299 110.188 11.6902C110.188 11.1098 110.661 10.65 111.193 10.65H111.764V8.52988C111.764 7.90976 112.257 7.38963 112.868 7.38963C113.478 7.38963 113.991 7.90976 113.991 8.52988V10.65H114.917C115.449 10.65 115.922 11.1098 115.922 11.6902C115.922 12.2299 115.449 12.7098 114.917 12.7098H113.991V15.0098C113.991 16.5299 114.07 16.85 114.74 16.85H115.055C115.587 16.85 116.04 17.2902 116.04 17.85C116.04 18.3902 115.587 18.85 115.055 18.85ZM125.844 8.22988C126.139 8.40976 126.396 8.80976 126.396 9.17012C126.396 9.75 125.903 10.2299 125.352 10.2299C125.214 10.2299 125.075 10.1902 124.958 10.15C124.307 9.67012 123.48 9.35 122.613 9.35C120.564 9.35 119.144 11.0299 119.144 13.1098C119.144 15.1902 120.563 16.85 122.613 16.85C123.637 16.85 124.544 16.4299 125.233 15.7902C125.411 15.6622 125.625 15.5923 125.844 15.5902C126.396 15.5902 126.829 16.0299 126.829 16.5902C126.829 16.95 126.613 17.2701 126.337 17.45C125.352 18.2902 124.011 18.85 122.632 18.85C119.48 18.85 116.918 16.25 116.918 13.05C116.918 9.85 119.479 7.25 122.632 7.25C123.815 7.25 124.938 7.60976 125.844 8.22988ZM131.491 16.85C132.496 16.85 133.342 15.95 133.342 14.7299C133.342 13.5104 132.475 12.7098 131.49 12.7098C130.505 12.7098 129.717 13.5299 129.717 14.7299C129.717 15.9098 130.505 16.85 131.49 16.85H131.491ZM133.855 17.8701L133.816 17.6098C133.382 18.4695 132.003 18.85 131.116 18.85C129.027 18.85 127.49 16.95 127.49 14.7098C127.49 12.4701 129.067 10.65 131.234 10.65C131.608 10.65 132.85 10.75 133.816 11.8902L133.855 11.6299C133.855 11.15 134.229 10.75 134.702 10.75C135.175 10.75 135.569 11.15 135.569 11.6299V17.8701C135.569 18.35 135.175 18.75 134.702 18.75C134.229 18.75 133.855 18.35 133.855 17.8701ZM141.688 16.85C142.674 16.85 143.461 15.9098 143.461 14.7299C143.461 13.5299 142.674 12.7098 141.688 12.7098C140.703 12.7098 139.836 13.5098 139.836 14.7299C139.836 15.95 140.683 16.85 141.688 16.85ZM139.836 18.1902V21.0299C139.836 21.65 139.324 22.1701 138.713 22.1701C138.102 22.1701 137.609 21.65 137.609 21.0299V11.6299C137.609 11.15 138.003 10.75 138.477 10.75C138.949 10.75 139.324 11.15 139.324 11.7098C140.151 10.85 141.176 10.65 141.944 10.65C144.112 10.65 145.688 12.4701 145.688 14.7098C145.688 16.95 144.152 18.85 142.063 18.85C141.413 18.85 140.447 18.65 139.836 18.1902Z" fill="white"/>
</svg>
