<svg width="14" height="14" viewBox="0 0 14 14" fill="none" xmlns="http://www.w3.org/2000/svg">
<path fill-rule="evenodd" clip-rule="evenodd" d="M0.333313 5.66669L0.333313 11C0.333313 12.4728 1.52722 13.6667 2.99998 13.6667L8.33331 13.6667C9.80607 13.6667 11 12.4728 11 11C12.4727 11 13.6666 9.80611 13.6666 8.33335L13.6666 6.00002L13.6666 3.00002C13.6666 1.52726 12.4727 0.333354 11 0.333354L5.66665 0.333354C4.19389 0.333354 2.99998 1.52726 2.99998 3.00002C1.52722 3.00002 0.333313 4.19393 0.333313 5.66669ZM4.33331 3.00002L8.33331 3.00002C9.80607 3.00002 11 4.19393 11 5.66669L11 9.66669C11.7364 9.66669 12.3333 9.06973 12.3333 8.33335L12.3333 6.00002L12.3333 3.00002C12.3333 2.26364 11.7364 1.66669 11 1.66669L5.66665 1.66669C4.93027 1.66669 4.33331 2.26364 4.33331 3.00002ZM2.99998 12.3334C2.2636 12.3334 1.66665 11.7364 1.66665 11L1.66665 5.66669C1.66665 4.93031 2.2636 4.33335 2.99998 4.33335L8.33331 4.33335C9.06969 4.33335 9.66665 4.93031 9.66665 5.66669L9.66665 11C9.66665 11.7364 9.06969 12.3334 8.33331 12.3334L2.99998 12.3334Z" fill="#FFFAF5"/>
</svg>
