<svg width="89" height="28" viewBox="0 0 89 28" fill="none" xmlns="http://www.w3.org/2000/svg">
<g clip-path="url(#clip0_602_3044)">
<path d="M16.234 20.0914H8.95215V27.3807H16.234V20.0914Z" fill="#ABEBF4"/>
<path d="M22.6805 10.0579H8.95215V17.321H22.6805H25.16V10.0579H22.6805Z" fill="#00B3C8"/>
<path d="M31.4761 0H8.95215V7.28923H31.4761V0Z" fill="#009BB5"/>
<path d="M7.28177 10.0579H0V17.3472H7.28177V10.0579Z" fill="#00B3C8"/>
<path d="M45.3352 9.90214V13.5599H52.6955V17.2175H45.3352V22.9392H40.6112V6.24451H53.687V9.87609H45.3352V9.90214Z" fill="white"/>
<path d="M60.499 9.98054H55.3832V6.24451H70.3123V9.98054H65.2228V22.9131H60.499V9.98054Z" fill="white"/>
<path d="M82.8421 22.9127L79.3967 17.7397L76.0037 22.9127H70.6272L76.6563 14.5001L70.8619 6.27026H76.1603L79.5009 11.0775L82.7897 6.27026H87.8795L82.0847 14.3171L88.2702 22.9388H82.8421V22.9127Z" fill="white"/>
</g>
<defs>
<clipPath id="clip0_602_3044">
<rect width="89" height="28" fill="white"/>
</clipPath>
</defs>
</svg>
