<svg width="48" height="48" viewBox="0 0 48 48" fill="none" xmlns="http://www.w3.org/2000/svg">
<path fill-rule="evenodd" clip-rule="evenodd" d="M24 3.99976C25.4423 3.99976 26.7728 4.77617 27.4824 6.03181L32.3531 14.6508L40.768 16.2971C42.234 16.5839 43.418 17.6636 43.8383 19.097C44.2587 20.5304 43.8454 22.0785 42.7665 23.1117L36.3663 29.2406L37.8469 39.4242C38.0617 40.9015 37.436 42.3755 36.2241 43.2471C35.0122 44.1187 33.4158 44.243 32.0836 43.5694L24 39.482L15.9164 43.5694C14.5842 44.243 12.9878 44.1187 11.7759 43.2471C10.564 42.3755 9.93829 40.9015 10.1531 39.4242L11.6337 29.2406L5.23346 23.1117C4.15461 22.0785 3.74129 20.5304 4.16166 19.097C4.58204 17.6636 5.76605 16.5839 7.232 16.2971L15.6469 14.6508L20.5176 6.03181C21.2272 4.77617 22.5577 3.99976 24 3.99976ZM18.2229 18.2227L8 20.2227L15.8885 27.7768L14.1115 39.9998L24 34.9998L33.8885 39.9998L32.1115 27.7768L40 20.2227L29.7771 18.2227L24 7.99976L18.2229 18.2227Z" fill="url(#paint0_linear_602_2928)"/>
<defs>
<linearGradient id="paint0_linear_602_2928" x1="3.99989" y1="3.99976" x2="49.883" y2="12.5947" gradientUnits="userSpaceOnUse">
<stop stop-color="#FF810A"/>
<stop offset="1" stop-color="#FFAB5C"/>
</linearGradient>
</defs>
</svg>
