<svg width="24" height="26" viewBox="0 0 24 26" fill="none" xmlns="http://www.w3.org/2000/svg">
<path fill-rule="evenodd" clip-rule="evenodd" d="M6.70117 4.61714C7.46402 4.61714 8.08309 5.5445 8.08309 6.68868C8.08309 7.83285 7.46402 8.76048 6.70117 8.76048C5.93804 8.76048 5.31925 7.83285 5.31925 6.68868C5.31925 5.5445 5.93804 4.61714 6.70117 4.61714ZM17.1636 4.61714C16.4004 4.61714 15.7819 5.5445 15.7819 6.68868C15.7819 7.83285 16.4004 8.76048 17.1636 8.76048C17.9273 8.76048 18.5455 7.83285 18.5455 6.68868C18.5455 5.5445 17.9273 4.61714 17.1636 4.61714ZM11.9325 25.5356C11.9325 25.5356 7.30777 25.7374 3.56668 23.548C-0.174687 21.3586 -0.410354 18.1922 0.667846 15.5983C1.74633 13.0047 2.89232 10.9834 2.89232 10.9834C2.89232 10.9834 -0.343145 8.4235 0.398437 4.98758C1.13974 1.55195 4.71238 0.810799 7.44277 0.810799C10.1726 0.810799 11.9325 0.810799 11.9325 0.810799C11.9325 0.810799 13.6922 0.810799 16.4223 0.810799C19.1524 0.810799 22.7253 1.55195 23.4666 4.98758C24.2079 8.4235 20.9727 10.9834 20.9727 10.9834C20.9727 10.9834 22.1187 13.0047 23.1969 15.5983C24.2754 18.1922 24.0397 21.3586 20.2986 23.548C16.557 25.7374 11.9325 25.5356 11.9325 25.5356Z" fill="#191F1F"/>
</svg>
