<svg width="139" height="135" viewBox="0 0 139 135" fill="none" xmlns="http://www.w3.org/2000/svg">
<path d="M138.54 22.8397C128.849 14.4515 118.231 14.4089 106.986 16.4953C107.267 15.4734 107.461 14.7708 107.418 14.9198C100.964 17.3043 94.3169 20.0294 87.4967 22.1159C84.8636 22.9249 81.7773 22.2223 78.8852 22.2436C77.4176 22.2649 75.9499 22.3075 74.4823 22.4139C66.9499 22.9462 59.3096 24.5216 51.9067 23.7978C44.288 23.0526 36.9067 20.1146 29.3743 17.134C30.0002 17.943 30.6261 18.7733 31.6189 20.0294C20.1369 19.4546 9.36709 19.8804 1.18722 28.8648C-0.0214126 23.1591 2.7196 16.4314 8.43903 11.8328C21.065 1.67746 34.2304 3.5084 47.806 10.3212C46.77 9.21412 45.734 8.10703 44.6981 6.99995C45.0218 6.4677 45.0002 6.51028 45.324 5.95674C49.1441 6.99995 53.1801 7.61736 56.7629 9.21411C65.3528 13.0463 73.3384 12.4289 81.3888 7.76639C84.5614 5.93545 88.2737 4.97741 91.7269 3.63614C92.0938 4.12581 92.0507 4.06194 92.4176 4.55161L88.9427 8.97992C101.137 0.804561 113.785 -2.96377 127.511 5.10514C133.856 8.89476 137.741 14.4302 138.54 22.8397Z" fill="url(#paint0_linear_602_3016)"/>
<path d="M94.619 38.5518L101.029 38.2324C97.36 36.0396 93.7557 33.8893 90.4751 31.9306C98.137 32.6332 105.864 33.3144 113.353 33.9957C113.418 33.9106 112.813 34.7409 112.187 35.5499C112.533 36.0396 113.223 36.1673 113.72 35.8267C117.043 33.5061 120.389 31.1642 123.583 28.9287C125.008 33.6338 123.626 37.6789 119.331 40.4679C112.986 44.5981 101.223 43.7465 94.619 38.5518Z" fill="url(#paint1_linear_602_3016)"/>
<path d="M15.9071 34.1233C19.8567 36.4013 23.5905 38.5729 27.3459 40.7445C27.756 40.1697 27.6697 39.3819 27.1517 38.8922C26.72 38.4664 26.3747 38.1684 26.3316 38.1045C33.5186 36.8484 41.1589 35.5284 48.3028 34.2723C47.6553 34.8684 46.3172 36.2949 44.7848 37.4658C43.1229 38.7219 41.2884 39.7651 38.5042 41.5535C41.7417 41.1916 43.792 40.9574 45.9719 40.7019C41.3316 46.4928 27.7128 48.6005 21.5833 45.407C16.9646 42.9586 14.9574 39.1052 15.9071 34.1233Z" fill="url(#paint2_linear_602_3016)"/>
<path d="M78.2815 102.017C78.2815 102.017 105.648 95.7154 121.469 82.4517C119.656 78.1724 116.677 73.8718 117.044 74.9576C113.569 66.25 109.684 64.3978 107.72 64.121C104.461 67.6551 101.505 70.8487 98.5477 74.0422C97.8787 73.5099 98.1592 73.7228 97.4902 73.1906C97.9002 72.6157 98.3319 72.0622 98.742 71.4873C105.864 61.7791 103.965 51.347 93.7779 44.8536C90.3031 42.6394 86.7204 40.553 83.0513 38.6156C78.8211 36.3802 74.6988 37.913 72.8642 42.2562C72.1088 44.0233 71.5693 45.8755 70.598 48.6432C69.5837 46.4716 68.9577 45.1516 68.3534 43.8316C65.6772 37.9982 61.5117 36.8698 56.1807 40.5956C53.4182 42.533 50.634 44.4278 47.9577 46.4503C37.9865 53.9657 36.7131 64.5468 44.5908 74.2551C45.5189 75.4047 46.5117 76.5331 47.4829 77.6827C47.0944 78.1085 47.2023 77.9808 46.8354 78.3853C43.5117 76.1073 40.2095 73.808 36.7563 71.4235C30.3462 80.7272 27.1735 90.7335 26.8282 101.464L27.6915 102.124C27.7131 102.145 52.5549 109.298 78.2815 102.017ZM93.929 55.8392C84.7779 66.3352 79.7707 67.3358 74.6124 59.5862C81.2383 59.2456 86.2671 52.9438 93.929 55.8392ZM67.598 59.9269C63.5189 68.23 57.6915 67.57 48.2599 58.0321C55.339 54.3489 61.0153 60.2249 67.598 59.9269Z" fill="url(#paint3_linear_602_3016)"/>
<path d="M117.799 95.9494C102.583 100.484 91.1874 102.741 81.6694 104.061C68.4392 107.105 53.6118 109.277 38.3312 109.298C37.9212 109.405 37.4895 109.49 37.0578 109.596C31.3816 111.214 32.6549 110.32 28.5758 112.598L51.5615 114.088C52.2521 114.131 52.3816 115.068 51.7557 115.302C48.1298 116.686 44.8708 117.942 41.2233 119.347C48.0866 127.075 55.4248 132.334 64.8349 134.058C77.5471 136.4 89.763 134.229 101.374 129.141C107.698 126.373 114.821 118.772 117.432 112.47C120.864 104.167 126.152 93.4585 117.799 95.9494Z" fill="url(#paint4_linear_602_3016)"/>
<defs>
<linearGradient id="paint0_linear_602_3016" x1="0.90625" y1="0.625" x2="90.0342" y2="81.9951" gradientUnits="userSpaceOnUse">
<stop stop-color="#FD499D"/>
<stop offset="1" stop-color="#FF810A"/>
</linearGradient>
<linearGradient id="paint1_linear_602_3016" x1="90.4751" y1="28.9287" x2="123.816" y2="43.7752" gradientUnits="userSpaceOnUse">
<stop stop-color="#FD499D"/>
<stop offset="1" stop-color="#FF810A"/>
</linearGradient>
<linearGradient id="paint2_linear_602_3016" x1="15.6769" y1="34.1233" x2="47.199" y2="49.2045" gradientUnits="userSpaceOnUse">
<stop stop-color="#FD499D"/>
<stop offset="1" stop-color="#FF810A"/>
</linearGradient>
<linearGradient id="paint3_linear_602_3016" x1="26.8282" y1="37.5945" x2="131.984" y2="65.1345" gradientUnits="userSpaceOnUse">
<stop stop-color="#FD499D"/>
<stop offset="1" stop-color="#FF810A"/>
</linearGradient>
<linearGradient id="paint4_linear_602_3016" x1="28.5758" y1="95.5825" x2="121.413" y2="136.918" gradientUnits="userSpaceOnUse">
<stop stop-color="#FD499D"/>
<stop offset="1" stop-color="#FF810A"/>
</linearGradient>
</defs>
</svg>
