<svg width="144" height="28" viewBox="0 0 144 28" fill="none" xmlns="http://www.w3.org/2000/svg">
<path d="M39.6424 18.8279C40.6859 18.8279 41.5729 18.6687 42.3033 18.3505C43.0338 18.0322 43.5816 17.607 43.9468 17.0748C44.312 16.5426 44.4946 15.9479 44.4946 15.2905C44.4946 14.5287 44.2938 13.9261 43.892 13.4826C43.4903 13.0392 43.0155 12.7157 42.4677 12.5122C41.9198 12.3087 41.2285 12.1183 40.3938 11.9409C39.6529 11.7844 39.1155 11.6331 38.7816 11.487C38.4477 11.3409 38.2807 11.1218 38.2807 10.8296C38.2807 10.5374 38.4216 10.3 38.7033 10.1174C38.9851 9.93481 39.4338 9.84351 40.0494 9.84351C41.0303 9.84351 42.0424 10.1252 43.0859 10.6887L44.0407 8.38786C43.5085 8.07481 42.8929 7.83742 42.1938 7.67568C41.4946 7.51394 40.7851 7.43307 40.0651 7.43307C39.0111 7.43307 38.1216 7.58959 37.3964 7.90264C36.6711 8.21568 36.1259 8.6409 35.7607 9.17829C35.3955 9.71568 35.2129 10.3183 35.2129 10.9861C35.2129 11.7479 35.4111 12.3531 35.8077 12.8018C36.2042 13.2505 36.679 13.5766 37.232 13.78C37.7851 13.9835 38.4738 14.1739 39.2981 14.3513C40.0494 14.5183 40.5946 14.6774 40.9338 14.8287C41.2729 14.98 41.4424 15.2122 41.4424 15.5252C41.4424 16.12 40.8477 16.4174 39.6581 16.4174C39.032 16.4174 38.3955 16.3183 37.7485 16.12C37.1016 15.9218 36.5329 15.6609 36.0424 15.3374L35.0251 17.6226C35.5468 17.9879 36.2251 18.28 37.0598 18.4992C37.8946 18.7183 38.7555 18.8279 39.6424 18.8279ZM49.7746 18.7496C50.6929 18.7496 51.5172 18.5618 52.2477 18.1861C52.9781 17.8105 53.5468 17.2887 53.9538 16.6209C54.3607 15.9531 54.5642 15.1966 54.5642 14.3513C54.5642 13.5061 54.3607 12.7522 53.9538 12.0896C53.5468 11.427 52.9781 10.9105 52.2477 10.54C51.5172 10.1696 50.6929 9.98438 49.7746 9.98438C48.8564 9.98438 48.0346 10.1696 47.3094 10.54C46.5842 10.9105 46.0155 11.4296 45.6033 12.0974C45.1911 12.7652 44.9851 13.5166 44.9851 14.3513C44.9851 15.1966 45.1911 15.9531 45.6033 16.6209C46.0155 17.2887 46.5868 17.8105 47.3172 18.1861C48.0477 18.5618 48.8668 18.7496 49.7746 18.7496ZM49.7746 16.3861C49.2529 16.3861 48.8251 16.2061 48.4911 15.8461C48.1572 15.4861 47.9903 14.9879 47.9903 14.3513C47.9903 13.7252 48.1572 13.2348 48.4911 12.88C48.8251 12.5252 49.2529 12.3479 49.7746 12.3479C50.2964 12.3479 50.7242 12.5252 51.0581 12.88C51.392 13.2348 51.559 13.7252 51.559 14.3513C51.559 14.9879 51.392 15.4861 51.0581 15.8461C50.7242 16.2061 50.2964 16.3861 49.7746 16.3861ZM58.6546 18.6087V6.99481H55.6807V18.6087H58.6546ZM62.9955 18.7496C64.2372 18.7496 65.072 18.3374 65.4998 17.5131V18.6087H68.2703V13.8974C68.2703 12.5722 67.8998 11.5887 67.159 10.947C66.4181 10.3052 65.3433 9.98438 63.9346 9.98438C63.2564 9.98438 62.5807 10.0705 61.9077 10.2426C61.2346 10.4148 60.6633 10.6574 60.1938 10.9705L61.1955 12.9896C61.4877 12.76 61.8424 12.58 62.2598 12.4496C62.6772 12.3192 63.0894 12.2539 63.4964 12.2539C64.6442 12.2539 65.2442 12.7026 65.2964 13.6H63.6059C62.3224 13.6 61.3729 13.8218 60.7572 14.2652C60.1416 14.7087 59.8338 15.3322 59.8338 16.1357C59.8338 16.6366 59.9564 17.0826 60.2016 17.4739C60.4468 17.8652 60.8094 18.1757 61.2894 18.4052C61.7694 18.6348 62.3381 18.7496 62.9955 18.7496ZM63.8251 16.8713C63.4807 16.8713 63.2094 16.7931 63.0111 16.6366C62.8129 16.48 62.7138 16.2713 62.7138 16.0105C62.7138 15.4366 63.1468 15.1496 64.0129 15.1496H65.2964V15.8852C65.1816 16.2087 64.9938 16.4539 64.7329 16.6209C64.472 16.7879 64.1694 16.8713 63.8251 16.8713ZM72.8616 18.6087V14.5079C72.8616 13.84 73.0155 13.3392 73.3233 13.0052C73.6311 12.6713 74.0407 12.5044 74.552 12.5044C75.4807 12.5044 75.9451 13.0835 75.9451 14.2418V18.6087H78.919V13.7566C78.919 12.4939 78.5981 11.5496 77.9564 10.9235C77.3146 10.2974 76.4668 9.98438 75.4129 9.98438C74.8703 9.98438 74.3694 10.0757 73.9103 10.2583C73.4511 10.4409 73.0546 10.7044 72.7207 11.0487V10.1252H69.8877V18.6087H72.8616ZM83.1972 18.7496C84.439 18.7496 85.2737 18.3374 85.7016 17.5131V18.6087H88.472V13.8974C88.472 12.5722 88.1016 11.5887 87.3607 10.947C86.6198 10.3052 85.5451 9.98438 84.1364 9.98438C83.4581 9.98438 82.7824 10.0705 82.1094 10.2426C81.4364 10.4148 80.8651 10.6574 80.3955 10.9705L81.3972 12.9896C81.6894 12.76 82.0442 12.58 82.4616 12.4496C82.879 12.3192 83.2911 12.2539 83.6981 12.2539C84.8459 12.2539 85.4459 12.7026 85.4981 13.6H83.8077C82.5242 13.6 81.5746 13.8218 80.959 14.2652C80.3433 14.7087 80.0355 15.3322 80.0355 16.1357C80.0355 16.6366 80.1581 17.0826 80.4033 17.4739C80.6485 17.8652 81.0111 18.1757 81.4911 18.4052C81.9711 18.6348 82.5398 18.7496 83.1972 18.7496ZM84.0268 16.8713C83.6824 16.8713 83.4111 16.7931 83.2129 16.6366C83.0146 16.48 82.9155 16.2713 82.9155 16.0105C82.9155 15.4366 83.3485 15.1496 84.2146 15.1496H85.4981V15.8852C85.3833 16.2087 85.1955 16.4539 84.9346 16.6209C84.6737 16.7879 84.3711 16.8713 84.0268 16.8713ZM100.441 18.6087C101.902 18.6087 103.018 18.3479 103.79 17.8261C104.562 17.3044 104.949 16.5635 104.949 15.6035C104.949 14.9461 104.771 14.3852 104.416 13.9209C104.062 13.4566 103.571 13.1148 102.945 12.8957C103.415 12.6557 103.777 12.3296 104.033 11.9174C104.289 11.5052 104.416 11.0383 104.416 10.5166C104.416 9.64003 104.051 8.94351 103.321 8.42699C102.59 7.91046 101.526 7.6522 100.128 7.6522H94.5242V18.6087H100.441ZM99.7207 12.0035H97.592V9.89046H99.7207C100.764 9.89046 101.286 10.24 101.286 10.9392C101.286 11.6487 100.764 12.0035 99.7207 12.0035ZM100.19 16.3705H97.592V14.1479H100.19C101.275 14.1479 101.818 14.5183 101.818 15.2592C101.818 16 101.275 16.3705 100.19 16.3705ZM110.604 18.7496C112.19 18.7496 113.395 18.2905 114.22 17.3722L112.655 15.7444C112.352 16.0052 112.052 16.1931 111.755 16.3079C111.457 16.4226 111.105 16.48 110.698 16.48C110.155 16.48 109.704 16.3626 109.344 16.1279C108.984 15.8931 108.742 15.5566 108.616 15.1183H114.783C114.815 14.6487 114.83 14.4035 114.83 14.3826C114.83 13.4748 114.629 12.6896 114.228 12.027C113.826 11.3644 113.281 10.8583 112.592 10.5087C111.903 10.1592 111.136 9.98438 110.291 9.98438C109.404 9.98438 108.606 10.1722 107.896 10.5479C107.187 10.9235 106.631 11.4426 106.229 12.1052C105.828 12.7679 105.627 13.5166 105.627 14.3513C105.627 15.1966 105.833 15.9531 106.245 16.6209C106.657 17.2887 107.239 17.8105 107.99 18.1861C108.742 18.5618 109.613 18.7496 110.604 18.7496ZM112.044 13.5531H108.569C108.653 13.1044 108.849 12.7496 109.156 12.4887C109.464 12.2279 109.848 12.0974 110.307 12.0974C110.766 12.0974 111.149 12.2279 111.457 12.4887C111.765 12.7496 111.961 13.1044 112.044 13.5531ZM118.389 18.7496C119.63 18.7496 120.465 18.3374 120.893 17.5131V18.6087H123.663V13.8974C123.663 12.5722 123.293 11.5887 122.552 10.947C121.811 10.3052 120.736 9.98438 119.328 9.98438C118.649 9.98438 117.974 10.0705 117.301 10.2426C116.628 10.4148 116.056 10.6574 115.587 10.9705L116.589 12.9896C116.881 12.76 117.235 12.58 117.653 12.4496C118.07 12.3192 118.482 12.2539 118.889 12.2539C120.037 12.2539 120.637 12.7026 120.689 13.6H118.999C117.715 13.6 116.766 13.8218 116.15 14.2652C115.535 14.7087 115.227 15.3322 115.227 16.1357C115.227 16.6366 115.349 17.0826 115.595 17.4739C115.84 17.8652 116.202 18.1757 116.682 18.4052C117.162 18.6348 117.731 18.7496 118.389 18.7496ZM119.218 16.8713C118.874 16.8713 118.602 16.7931 118.404 16.6366C118.206 16.48 118.107 16.2713 118.107 16.0105C118.107 15.4366 118.54 15.1496 119.406 15.1496H120.689V15.8852C120.575 16.2087 120.387 16.4539 120.126 16.6209C119.865 16.7879 119.562 16.8713 119.218 16.8713ZM129.742 18.7496C130.702 18.7496 131.531 18.5435 132.23 18.1313C132.929 17.7192 133.425 17.1479 133.717 16.4174L131.416 15.2435C131.03 16.0052 130.467 16.3861 129.726 16.3861C129.194 16.3861 128.753 16.2061 128.403 15.8461C128.054 15.4861 127.879 14.9879 127.879 14.3513C127.879 13.7252 128.054 13.2348 128.403 12.88C128.753 12.5252 129.194 12.3479 129.726 12.3479C130.467 12.3479 131.03 12.7287 131.416 13.4905L133.717 12.3166C133.425 11.5861 132.929 11.0148 132.23 10.6026C131.531 10.1905 130.702 9.98438 129.742 9.98438C128.802 9.98438 127.962 10.1696 127.222 10.54C126.481 10.9105 125.904 11.427 125.492 12.0896C125.08 12.7522 124.874 13.5061 124.874 14.3513C124.874 15.1966 125.08 15.9531 125.492 16.6209C125.904 17.2887 126.481 17.8105 127.222 18.1861C127.962 18.5618 128.802 18.7496 129.742 18.7496ZM137.526 18.6087V14.5079C137.526 13.84 137.68 13.3392 137.988 13.0052C138.295 12.6713 138.705 12.5044 139.216 12.5044C140.145 12.5044 140.609 13.0835 140.609 14.2418V18.6087H143.583V13.7566C143.583 12.4939 143.262 11.5496 142.621 10.9235C141.979 10.2974 141.131 9.98438 140.077 9.98438C139.576 9.98438 139.107 10.0626 138.669 10.2192C138.23 10.3757 137.849 10.6052 137.526 10.9079V6.99481H134.552V18.6087H137.526Z" fill="white"/>
<path fill-rule="evenodd" clip-rule="evenodd" d="M14.8703 0.609009C22.5062 0.609009 28.6964 6.79916 28.6964 14.4351C28.6964 14.7837 28.634 15.4158 28.5093 16.3312C28.4741 16.5897 28.2533 16.7824 27.9924 16.7825L23.8703 16.7829C23.6542 16.7829 23.479 16.9581 23.479 17.1742C23.479 17.3776 23.6342 17.5448 23.8326 17.5637L23.8703 17.5655L27.9245 17.565C28.0934 17.565 28.2304 17.702 28.2304 17.8709C28.2304 17.8921 28.2283 17.9131 28.2239 17.9338C28.1732 18.1754 27.9602 18.3484 27.7133 18.3484H2.02733C1.81101 18.3484 1.63565 18.173 1.63565 17.9567C1.63565 17.7404 1.81101 17.565 2.02733 17.565C2.02734 17.565 2.02735 17.565 2.02736 17.565L7.69639 17.5655C7.91251 17.5655 8.0877 17.3903 8.0877 17.1742C8.0877 16.9708 7.93251 16.8037 7.73408 16.7847L7.69639 16.7829L1.69062 16.7824C1.46255 16.7824 1.26842 16.6164 1.23299 16.3911C1.20395 16.2064 1.33017 16.033 1.51492 16.004C1.53234 16.0013 1.54994 15.9999 1.56758 15.9999L3.78335 16.0003C3.99946 16.0003 4.17466 15.8251 4.17466 15.609C4.17466 15.4056 4.01947 15.2385 3.82104 15.2195L3.78335 15.2177L1.57342 15.2175C1.29457 15.2174 1.06503 14.9982 1.05228 14.7196C1.04691 14.6023 1.04422 14.5074 1.04422 14.4351C1.04422 6.79916 7.23437 0.609009 14.8703 0.609009ZM26.479 15.2177H23.6094C23.3933 15.2177 23.2181 15.3929 23.2181 15.609C23.2181 15.8124 23.3733 15.9796 23.5718 15.9985L23.6094 16.0003H26.479C26.6951 16.0003 26.8703 15.8251 26.8703 15.609C26.8703 15.4056 26.7151 15.2385 26.5167 15.2195L26.479 15.2177Z" fill="url(#paint0_linear_602_3033)"/>
<path fill-rule="evenodd" clip-rule="evenodd" d="M17.8708 23.8265C18.0869 23.8265 18.2621 24.0017 18.2621 24.2178C18.2621 24.4339 18.0869 24.6091 17.8708 24.6091H7.69687C7.48076 24.6091 7.30556 24.4339 7.30556 24.2178C7.30556 24.0017 7.48076 23.8265 7.69687 23.8265H17.8708ZM25.6969 22.2613C25.913 22.2613 26.0882 22.4365 26.0882 22.6526C26.0882 22.8687 25.913 23.0439 25.6969 23.0439H20.7403C20.5242 23.0439 20.349 22.8687 20.349 22.6526C20.349 22.4365 20.5242 22.2613 20.7403 22.2613H25.6969ZM17.0882 22.2613C17.3043 22.2613 17.4795 22.4365 17.4795 22.6526C17.4795 22.8687 17.3043 23.0439 17.0882 23.0439H3.52295C3.30684 23.0439 3.13165 22.8687 3.13165 22.6526C3.13165 22.4365 3.30684 22.2613 3.52295 22.2613H17.0882ZM5.60991 20.6961C5.82602 20.6961 6.00122 20.8713 6.00122 21.0874C6.00122 21.3035 5.82602 21.4787 5.60991 21.4787H0.653389C0.437278 21.4787 0.262085 21.3035 0.262085 21.0874C0.262085 20.8713 0.437278 20.6961 0.653389 20.6961H5.60991ZM18.6534 20.6961C18.8695 20.6961 19.0447 20.8713 19.0447 21.0874C19.0447 21.3035 18.8695 21.4787 18.6534 21.4787H10.0447C9.82858 21.4787 9.65339 21.3035 9.65339 21.0874C9.65339 20.8713 9.82858 20.6961 10.0447 20.6961H18.6534ZM28.5664 20.6961C28.7825 20.6961 28.9577 20.8713 28.9577 21.0874C28.9577 21.3035 28.7825 21.4787 28.5664 21.4787H23.6099C23.3938 21.4787 23.2186 21.3035 23.2186 21.0874C23.2186 20.8713 23.3938 20.6961 23.6099 20.6961H28.5664ZM8.47948 20.6961C8.69559 20.6961 8.87078 20.8713 8.87078 21.0874C8.87078 21.3035 8.69559 21.4787 8.47948 21.4787H7.17513C6.95902 21.4787 6.78382 21.3035 6.78382 21.0874C6.78382 20.8713 6.95902 20.6961 7.17513 20.6961H8.47948ZM21.7838 20.6961C21.9999 20.6961 22.1751 20.8713 22.1751 21.0874C22.1751 21.3035 21.9999 21.4787 21.7838 21.4787H20.4795C20.2634 21.4787 20.0882 21.3035 20.0882 21.0874C20.0882 20.8713 20.2634 20.6961 20.4795 20.6961H21.7838ZM27.2621 19.1309C27.4782 19.1309 27.6534 19.3061 27.6534 19.5222C27.6534 19.7383 27.4782 19.9135 27.2621 19.9135H1.95774C1.74163 19.9135 1.56643 19.7383 1.56643 19.5222C1.56643 19.3061 1.74163 19.1309 1.95774 19.1309H27.2621Z" fill="url(#paint1_linear_602_3033)"/>
<path d="M18.9141 25.3915H12.1315C11.9154 25.3915 11.7402 25.5667 11.7402 25.7828C11.7402 25.9989 11.9154 26.1741 12.1315 26.1741H18.9141C19.1303 26.1741 19.3055 25.9989 19.3055 25.7828C19.3055 25.5667 19.1303 25.3915 18.9141 25.3915Z" fill="url(#paint2_linear_602_3033)"/>
<path d="M16.3054 26.9571H13.6967C13.4806 26.9571 13.3054 27.1323 13.3054 27.3484C13.3054 27.5645 13.4806 27.7397 13.6967 27.7397H16.3054C16.5215 27.7397 16.6967 27.5645 16.6967 27.3484C16.6967 27.1323 16.5215 26.9571 16.3054 26.9571Z" fill="url(#paint3_linear_602_3033)"/>
<path d="M36.4525 24.1585C36.7215 24.1585 36.94 24.1185 37.1078 24.0385C37.2757 23.9584 37.3985 23.8501 37.4763 23.7133C37.5542 23.5766 37.5931 23.4226 37.5931 23.2514C37.5931 23.0713 37.5575 22.919 37.4864 22.7945C37.4152 22.67 37.3268 22.5744 37.2212 22.5077C37.1156 22.441 37.0106 22.4043 36.9061 22.3977V22.3643C37.0039 22.3376 37.0948 22.2965 37.1787 22.2409C37.2626 22.1854 37.3304 22.1098 37.3821 22.0142C37.4338 21.9186 37.4597 21.7974 37.4597 21.6506C37.4597 21.4839 37.4219 21.3319 37.3463 21.1946C37.2707 21.0573 37.1556 20.9478 37.0011 20.8661C36.8466 20.7844 36.6504 20.7435 36.4125 20.7435H35.2186V24.1585H36.4525ZM36.3991 22.2443H35.6321V21.1104H36.4125C36.6393 21.1104 36.8049 21.1629 36.9094 21.268C37.0139 21.373 37.0661 21.5006 37.0661 21.6506C37.0661 21.7707 37.0364 21.8752 36.9769 21.9641C36.9175 22.0531 36.8374 22.122 36.7368 22.1709C36.6362 22.2198 36.5237 22.2443 36.3991 22.2443ZM36.4525 23.7917H35.6321V22.6044H36.4725C36.6215 22.6044 36.7504 22.6342 36.8594 22.6937C36.9683 22.7531 37.0523 22.8321 37.1112 22.9304C37.1701 23.0288 37.1995 23.1358 37.1995 23.2514C37.1995 23.4015 37.1426 23.5291 37.0286 23.6341C36.9147 23.7392 36.7226 23.7917 36.4525 23.7917ZM39.5726 24.1585V22.7512L40.8066 20.7435H40.333L39.3859 22.3376H39.3458L38.3987 20.7435H37.9251L39.1591 22.7512V24.1585H39.5726ZM43.6318 24.2186C43.8941 24.2186 44.1173 24.1747 44.3013 24.0868C44.4853 23.999 44.6253 23.8806 44.7215 23.7317C44.8177 23.5827 44.8657 23.416 44.8657 23.2314C44.8657 23.0713 44.8329 22.9363 44.7673 22.8262C44.7018 22.7162 44.6187 22.6258 44.5181 22.5553C44.4175 22.4847 44.3124 22.4288 44.2029 22.3877C44.0934 22.3465 43.9942 22.3143 43.9053 22.291L43.5584 22.1976C43.4951 22.1809 43.4256 22.1589 43.35 22.1317C43.2744 22.1045 43.2021 22.0695 43.1332 22.0267C43.0643 21.9839 43.0079 21.9299 42.964 21.8649C42.92 21.7999 42.8981 21.7218 42.8981 21.6306C42.8981 21.5217 42.9295 21.4244 42.9923 21.3388C43.0551 21.2532 43.1429 21.186 43.2558 21.1371C43.3686 21.0881 43.5006 21.0637 43.6518 21.0637C43.8586 21.0637 44.0331 21.1104 44.1754 21.2038C44.3177 21.2971 44.3988 21.4283 44.4188 21.5973H44.819C44.8135 21.425 44.7604 21.271 44.6598 21.1354C44.5592 20.9998 44.4233 20.8928 44.2521 20.8144C44.0809 20.736 43.8852 20.6968 43.6651 20.6968C43.4473 20.6968 43.2502 20.7366 43.074 20.8161C42.8978 20.8955 42.7577 21.0067 42.6538 21.1496C42.5499 21.2924 42.4979 21.4594 42.4979 21.6506C42.4979 21.8808 42.5757 22.067 42.7313 22.2093C42.887 22.3515 43.0982 22.461 43.365 22.5377L43.7852 22.6578C43.9053 22.6912 44.017 22.7301 44.1204 22.7745C44.2237 22.819 44.3071 22.8768 44.3705 22.9479C44.4339 23.0191 44.4655 23.1114 44.4655 23.2248C44.4655 23.3493 44.4288 23.4579 44.3555 23.5507C44.2821 23.6436 44.1826 23.7158 44.057 23.7675C43.9314 23.8192 43.7896 23.8451 43.6318 23.8451C43.4962 23.8451 43.3697 23.8248 43.2524 23.7842C43.1352 23.7436 43.0384 23.6814 42.9623 23.5974C42.8861 23.5135 42.8425 23.4071 42.8314 23.2781H42.4045C42.4179 23.4649 42.4754 23.6288 42.5771 23.77C42.6788 23.9112 42.8189 24.0213 42.9973 24.1002C43.1757 24.1791 43.3872 24.2186 43.6318 24.2186ZM46.7919 24.1585V21.1104H47.8658V20.7435H45.3045V21.1104H46.3784V24.1585H46.7919ZM48.1912 24.1585L48.5343 23.1915H49.9154L50.2589 24.1585H50.6924L49.4385 20.7435H49.0116L47.7576 24.1585H48.1912ZM49.7852 22.8247H48.6645L49.2117 21.2838H49.2384L49.7852 22.8247ZM51.5848 24.1585V23.0513L52.0117 22.5711L53.1989 24.1585H53.6992L52.2651 22.2843L53.6992 20.7435H53.1589L51.6248 22.4377H51.5848V20.7435H51.1712V24.1585H51.5848ZM54.5915 24.1585V20.7435H54.178V24.1585H54.5915ZM55.7773 24.1585V21.4772H55.8107L57.6716 24.1585H58.0718V20.7435H57.6649V23.4315H57.6316L55.764 20.7435H55.3638V24.1585H55.7773ZM60.2315 24.2052C60.5027 24.2052 60.7431 24.1483 60.9526 24.0343C61.1622 23.9204 61.3267 23.7595 61.4462 23.5516C61.5657 23.3437 61.6255 23.0991 61.6255 22.8179V22.451H60.3248V22.8179L61.2246 22.8179L61.2233 22.8683C61.2154 23.0199 61.184 23.156 61.1289 23.2766L61.0994 23.3356C61.0154 23.4896 60.8987 23.6086 60.7492 23.6925C60.5997 23.7764 60.4271 23.8184 60.2315 23.8184C60.0202 23.8184 59.8301 23.7661 59.6612 23.6616C59.4922 23.5571 59.3582 23.4032 59.2593 23.1997C59.1604 22.9963 59.1109 22.7467 59.1109 22.451C59.1109 22.1553 59.1598 21.9058 59.2576 21.7023C59.3555 21.4989 59.4872 21.3449 59.6528 21.2404C59.8185 21.1359 60.0025 21.0837 60.2048 21.0837C60.3282 21.0837 60.4416 21.1004 60.5449 21.1337C60.6483 21.1671 60.7409 21.2154 60.8226 21.2788C60.9043 21.3422 60.9749 21.4186 61.0343 21.5081C61.0938 21.5976 61.1419 21.6984 61.1786 21.8107H61.6055C61.5743 21.6451 61.5176 21.4942 61.4354 21.358C61.3531 21.2218 61.2506 21.1045 61.1277 21.0062C61.0049 20.9078 60.8654 20.8316 60.7092 20.7777C60.553 20.7238 60.3849 20.6968 60.2048 20.6968C59.9858 20.6968 59.7851 20.7374 59.6028 20.8186C59.4205 20.8997 59.2626 21.0164 59.1292 21.1687C58.9958 21.321 58.8927 21.5053 58.8199 21.7215C58.7471 21.9377 58.7107 22.1809 58.7107 22.451C58.7107 22.8112 58.7743 23.1225 58.9016 23.3848C59.0289 23.6472 59.2068 23.8495 59.4352 23.9918C59.6637 24.1341 59.9291 24.2052 60.2315 24.2052ZM63.9571 24.1585V22.6311H65.4378V22.2643H63.9571V21.1104H65.5913V20.7435H63.5436V24.1585H63.9571ZM65.9567 24.1585L66.2998 23.1915H67.6809L68.0244 24.1585H68.4579L67.204 20.7435H66.7771L65.5231 24.1585H65.9567ZM67.5507 22.8247H66.43L66.9772 21.2838H67.0039L67.5507 22.8247ZM70.1507 24.2052C70.323 24.2052 70.485 24.1802 70.6367 24.1302C70.7885 24.0802 70.9255 24.0071 71.0478 23.9109C71.1701 23.8148 71.2723 23.6978 71.3546 23.5599C71.4369 23.4221 71.4935 23.2659 71.5247 23.0914H71.1111C71.0867 23.2092 71.0442 23.3134 70.9836 23.404C70.923 23.4946 70.8496 23.5708 70.7635 23.6325C70.6773 23.6942 70.582 23.7406 70.4775 23.7717C70.373 23.8028 70.264 23.8184 70.1507 23.8184C69.9439 23.8184 69.7569 23.7661 69.5896 23.6616C69.4222 23.5571 69.2894 23.4032 69.191 23.1997C69.0926 22.9963 69.0434 22.7467 69.0434 22.451C69.0434 22.1553 69.0926 21.9058 69.191 21.7023C69.2894 21.4989 69.4222 21.3449 69.5896 21.2404C69.7569 21.1359 69.9439 21.0837 70.1507 21.0837C70.264 21.0837 70.373 21.0993 70.4775 21.1304C70.582 21.1615 70.6773 21.2079 70.7635 21.2696C70.8496 21.3313 70.923 21.4072 70.9836 21.4972C71.0442 21.5873 71.0867 21.6918 71.1111 21.8107H71.5247C71.4935 21.6351 71.4369 21.4786 71.3546 21.3413C71.2723 21.204 71.1701 21.0873 71.0478 20.9912C70.9255 20.895 70.7885 20.8219 70.6367 20.7719C70.485 20.7219 70.323 20.6968 70.1507 20.6968C69.8594 20.6968 69.6004 20.768 69.3736 20.9103C69.1468 21.0526 68.9684 21.2549 68.8383 21.5172C68.7083 21.7796 68.6433 22.0909 68.6433 22.451C68.6433 22.8112 68.7083 23.1225 68.8383 23.3848C68.9684 23.6472 69.1468 23.8495 69.3736 23.9918C69.6004 24.1341 69.8594 24.2052 70.1507 24.2052ZM72.5504 24.1585V20.7435H72.1369V24.1585H72.5504ZM75.3237 24.1585V23.7917H73.7363V20.7435H73.3227V24.1585H75.3237ZM76.3228 24.1585V20.7435H75.9092V24.1585H76.3228ZM78.3957 24.1585V21.1104H79.4696V20.7435H76.9083V21.1104H77.9822V24.1585H78.3957ZM80.4686 24.1585V20.7435H80.0551V24.1585H80.4686ZM83.3286 24.1585V23.7917H81.6545V22.6311H83.1952V22.2643H81.6545V21.1104H83.302V20.7435H81.2409V24.1585H83.3286ZM85.0747 24.2186C85.3371 24.2186 85.5603 24.1747 85.7442 24.0868C85.9282 23.999 86.0683 23.8806 86.1644 23.7317C86.2606 23.5827 86.3087 23.416 86.3087 23.2314C86.3087 23.0713 86.2759 22.9363 86.2103 22.8262C86.1447 22.7162 86.0616 22.6258 85.961 22.5553C85.8604 22.4847 85.7554 22.4288 85.6459 22.3877C85.5364 22.3465 85.4371 22.3143 85.3482 22.291L85.0014 22.1976C84.938 22.1809 84.8685 22.1589 84.7929 22.1317C84.7173 22.1045 84.6451 22.0695 84.5762 22.0267C84.5072 21.9839 84.4508 21.9299 84.4069 21.8649C84.363 21.7999 84.341 21.7218 84.341 21.6306C84.341 21.5217 84.3724 21.4244 84.4353 21.3388C84.4981 21.2532 84.5859 21.186 84.6987 21.1371C84.8116 21.0881 84.9436 21.0637 85.0948 21.0637C85.3015 21.0637 85.4761 21.1104 85.6183 21.2038C85.7606 21.2971 85.8418 21.4283 85.8618 21.5973H86.262C86.2564 21.425 86.2034 21.271 86.1027 21.1354C86.0021 20.9998 85.8662 20.8928 85.695 20.8144C85.5239 20.736 85.3282 20.6968 85.1081 20.6968C84.8902 20.6968 84.6932 20.7366 84.517 20.8161C84.3408 20.8955 84.2007 21.0067 84.0968 21.1496C83.9928 21.2924 83.9408 21.4594 83.9408 21.6506C83.9408 21.8808 84.0187 22.067 84.1743 22.2093C84.3299 22.3515 84.5411 22.461 84.8079 22.5377L85.2282 22.6578C85.3482 22.6912 85.4599 22.7301 85.5633 22.7745C85.6667 22.819 85.7501 22.8768 85.8134 22.9479C85.8768 23.0191 85.9085 23.1114 85.9085 23.2248C85.9085 23.3493 85.8718 23.4579 85.7984 23.5507C85.7251 23.6436 85.6256 23.7158 85.5 23.7675C85.3743 23.8192 85.2326 23.8451 85.0747 23.8451C84.9391 23.8451 84.8127 23.8248 84.6954 23.7842C84.5781 23.7436 84.4814 23.6814 84.4052 23.5974C84.3291 23.5135 84.2855 23.4071 84.2743 23.2781H83.8475C83.8608 23.4649 83.9183 23.6288 84.0201 23.77C84.1218 23.9112 84.2618 24.0213 84.4403 24.1002C84.6187 24.1791 84.8302 24.2186 85.0747 24.2186Z" fill="#6BF5E0"/>
<path fill-rule="evenodd" clip-rule="evenodd" d="M91.9591 20.7633C92.0282 20.8325 92.0282 20.9447 91.9591 21.0138L90.581 22.3916L91.9591 23.7696C92.0282 23.8388 92.0282 23.9509 91.9591 24.0201C91.8899 24.0893 91.7777 24.0893 91.7085 24.0201L90.3306 22.6421L88.9528 24.0201C88.8836 24.0893 88.7715 24.0893 88.7023 24.0201C88.6331 23.9509 88.6331 23.8388 88.7023 23.7696L90.0801 22.3916L88.7023 21.0138C88.6331 20.9447 88.6331 20.8325 88.7023 20.7633C88.7715 20.6941 88.8836 20.6941 88.9528 20.7633L90.3306 22.1412L91.7085 20.7633C91.7777 20.6941 91.8899 20.6941 91.9591 20.7633Z" fill="white"/>
<path fill-rule="evenodd" clip-rule="evenodd" d="M98.9659 20.6959C99.146 20.6959 99.3142 20.7229 99.4704 20.7768C99.6265 20.8307 99.7661 20.9069 99.8889 21.0052C100.012 21.1036 100.114 21.2209 100.197 21.3571C100.279 21.4933 100.336 21.6442 100.367 21.8098H99.9398L99.9164 21.7438C99.8834 21.6576 99.8431 21.5787 99.7955 21.5072C99.736 21.4177 99.6654 21.3412 99.5837 21.2779C99.502 21.2145 99.4095 21.1662 99.3061 21.1328C99.2027 21.0995 99.0893 21.0828 98.9659 21.0828C98.7636 21.0828 98.5796 21.135 98.414 21.2395C98.2484 21.344 98.1166 21.498 98.0188 21.7014C97.921 21.9049 97.8721 22.1544 97.8721 22.4501C97.8721 22.7458 97.9215 22.9954 98.0205 23.1988C98.1194 23.4023 98.2534 23.5562 98.4223 23.6607C98.5913 23.7652 98.7814 23.8175 98.9926 23.8175C99.1883 23.8175 99.3609 23.7755 99.5104 23.6916C99.6599 23.6076 99.7766 23.4887 99.8605 23.3347L99.8901 23.2757C99.9451 23.1551 99.9766 23.019 99.9845 22.8674L99.9857 22.817L99.086 22.817V22.4501H100.387V22.817L100.385 22.9002C100.374 23.1468 100.315 23.3636 100.207 23.5507C100.088 23.7585 99.9234 23.9195 99.7138 24.0334C99.5043 24.1473 99.2639 24.2043 98.9926 24.2043C98.6902 24.2043 98.4248 24.1332 98.1964 23.9909C97.9679 23.8486 97.7901 23.6463 97.6628 23.3839C97.5355 23.1216 97.4719 22.8103 97.4719 22.4501C97.4719 22.18 97.5083 21.9368 97.5811 21.7206C97.6539 21.5044 97.757 21.3201 97.8904 21.1678C98.0238 21.0155 98.1817 20.8988 98.364 20.8176C98.5463 20.7365 98.7469 20.6959 98.9659 20.6959ZM105.88 20.6959C106.06 20.6959 106.228 20.7229 106.384 20.7768C106.54 20.8307 106.68 20.9069 106.803 21.0052C106.926 21.1036 107.028 21.2209 107.11 21.3571C107.193 21.4933 107.249 21.6442 107.281 21.8098H106.854L106.83 21.7438C106.797 21.6576 106.757 21.5787 106.709 21.5072C106.65 21.4177 106.579 21.3412 106.498 21.2779C106.416 21.2145 106.323 21.1662 106.22 21.1328C106.117 21.0995 106.003 21.0828 105.88 21.0828C105.678 21.0828 105.494 21.135 105.328 21.2395C105.162 21.344 105.031 21.498 104.933 21.7014C104.835 21.9049 104.786 22.1544 104.786 22.4501C104.786 22.7458 104.835 22.9954 104.934 23.1988C105.033 23.4023 105.167 23.5562 105.336 23.6607C105.505 23.7652 105.695 23.8175 105.907 23.8175C106.102 23.8175 106.275 23.7755 106.424 23.6916C106.574 23.6076 106.691 23.4887 106.774 23.3347L106.804 23.2757C106.859 23.1551 106.891 23.019 106.898 22.8674L106.9 22.817L106 22.817V22.4501H107.301V22.817L107.299 22.9002C107.288 23.1468 107.229 23.3636 107.121 23.5507C107.002 23.7585 106.837 23.9195 106.628 24.0334C106.418 24.1473 106.178 24.2043 105.907 24.2043C105.604 24.2043 105.339 24.1332 105.11 23.9909C104.882 23.8486 104.704 23.6463 104.577 23.3839C104.449 23.1216 104.386 22.8103 104.386 22.4501C104.386 22.18 104.422 21.9368 104.495 21.7206C104.568 21.5044 104.671 21.3201 104.804 21.1678C104.938 21.0155 105.096 20.8988 105.278 20.8176C105.46 20.7365 105.661 20.6959 105.88 20.6959ZM94.7853 20.7426L95.7991 23.6174H95.8391L96.853 20.7426H97.2865L96.0326 24.1576H95.6057L94.3517 20.7426H94.7853ZM101.439 20.7426L103.307 23.4306H103.34V20.7426H103.747V24.1576H103.347L101.486 21.4763H101.452V24.1576H101.039V20.7426H101.439Z" fill="#6BF5E0"/>
<defs>
<linearGradient id="paint0_linear_602_3033" x1="14.8703" y1="-1.68254" x2="14.8703" y2="22.8154" gradientUnits="userSpaceOnUse">
<stop stop-color="#F7C300"/>
<stop offset="1" stop-color="#FA006A"/>
</linearGradient>
<linearGradient id="paint1_linear_602_3033" x1="14.6099" y1="-4.0096" x2="14.6099" y2="27.0476" gradientUnits="userSpaceOnUse">
<stop stop-color="#F7C300"/>
<stop offset="1" stop-color="#FA006A"/>
</linearGradient>
<linearGradient id="paint2_linear_602_3033" x1="15.5228" y1="22.0857" x2="15.5228" y2="26.5224" gradientUnits="userSpaceOnUse">
<stop stop-color="#F7C300"/>
<stop offset="1" stop-color="#FA006A"/>
</linearGradient>
<linearGradient id="paint3_linear_602_3033" x1="15.0011" y1="23.6513" x2="15.0011" y2="28.0881" gradientUnits="userSpaceOnUse">
<stop stop-color="#F7C300"/>
<stop offset="1" stop-color="#FA006A"/>
</linearGradient>
</defs>
</svg>
