<svg width="111" height="30" viewBox="0 0 111 30" fill="none" xmlns="http://www.w3.org/2000/svg">
<path d="M0 12.1165C0.0257616 8.89869 1.50692 5.82006 4.12103 3.55076C6.73514 1.28147 10.2706 0.00527566 13.9576 0H14.9796V1.93686H13.9731C10.8718 1.93819 7.89668 3.00863 5.69531 4.91516C3.49396 6.82169 2.24462 9.40994 2.21926 12.1165H0Z" fill="white"/>
<path d="M4.2569 24.3724V22.4355H5.2789C8.37962 22.4324 11.3535 21.3606 13.5534 19.4534C15.7532 17.5462 17.0009 14.958 17.025 12.2518H19.2458C19.22 15.4708 17.7378 18.5505 15.122 20.82C12.5062 23.0895 8.96885 24.3648 5.28045 24.3683L4.2569 24.3724Z" fill="white"/>
<path d="M4.2569 20.657V18.7202H5.2789C7.251 18.7181 9.1428 18.0381 10.5446 16.8275C11.9463 15.6168 12.7451 13.9729 12.7679 12.2518H14.9872C14.9627 14.4858 13.9294 16.621 12.1117 18.194C10.294 19.767 7.83866 20.6506 5.2789 20.653L4.2569 20.657Z" fill="white"/>
<path d="M4.2569 12.1165C4.2806 9.88086 5.31455 7.74367 7.13397 6.16974C8.95339 4.59579 11.4111 3.71228 13.9729 3.7113H14.9949V5.64816H13.9729C11.9995 5.6484 10.1057 6.32761 8.70231 7.53848C7.29891 8.74936 6.49901 10.3943 6.47615 12.1165H4.2569Z" fill="white"/>
<path d="M4.2569 16.9417V15.0049H5.2789C6.12241 15.0044 6.93232 14.7163 7.53581 14.2019C8.13936 13.6876 8.48869 12.9878 8.50931 12.2518V12.1801C8.51218 10.9176 9.08931 9.70776 10.1138 8.81639C11.1383 7.92508 12.5264 7.4252 13.9729 7.42664H14.9949V9.36351H13.9729C13.1282 9.36258 12.3165 9.65001 11.7115 10.1645C11.1064 10.6789 10.7558 11.3795 10.7348 12.1165V12.1883C10.7331 13.4498 10.1581 14.6593 9.13578 15.5512C8.11351 16.4431 6.72752 16.9447 5.282 16.9458L4.2569 16.9417Z" fill="white"/>
<path d="M41.547 9.45671C41.4819 8.95246 41.2133 8.56184 40.7413 8.28484C40.2693 8.00427 39.6753 7.86402 38.9592 7.86402C38.4465 7.86402 38.0029 7.93502 37.6286 8.07709C37.2543 8.21559 36.9633 8.40733 36.7559 8.6524C36.5524 8.89384 36.4507 9.16909 36.4507 9.47802C36.4507 9.73721 36.5198 9.96096 36.6582 10.1491C36.8006 10.3374 36.9857 10.4954 37.2136 10.6233C37.4455 10.7475 37.6937 10.8523 37.9582 10.9375C38.2227 11.0192 38.477 11.0866 38.7211 11.14L39.9418 11.4169C40.3406 11.5021 40.7495 11.6176 41.1686 11.7631C41.5877 11.9088 41.9762 12.1005 42.3343 12.3385C42.6924 12.5764 42.9813 12.8711 43.201 13.2226C43.4248 13.5743 43.5367 13.995 43.5367 14.4851C43.5367 15.103 43.3536 15.6516 42.9874 16.1311C42.6253 16.6105 42.0983 16.9886 41.4066 17.2656C40.719 17.5426 39.8869 17.6811 38.9103 17.6811C37.9745 17.6811 37.1648 17.5515 36.4812 17.2923C35.7976 17.033 35.2625 16.6655 34.876 16.1896C34.4895 15.7103 34.2758 15.1421 34.2352 14.4851H36.1272C36.1638 14.8793 36.3103 15.2078 36.5667 15.4705C36.8271 15.7298 37.1587 15.9233 37.5615 16.0511C37.9684 16.1755 38.4139 16.2376 38.8981 16.2376C39.4312 16.2376 39.9052 16.1648 40.3202 16.0192C40.7393 15.87 41.0689 15.6641 41.3089 15.4013C41.5491 15.135 41.6691 14.8242 41.6691 14.4691C41.6691 14.146 41.5632 13.8814 41.3517 13.6755C41.1442 13.4695 40.8614 13.299 40.5033 13.1641C40.1493 13.0291 39.7485 12.9101 39.3009 12.8072L37.8239 12.4556C36.823 12.2177 36.0296 11.8679 35.4436 11.4063C34.8618 10.9446 34.5708 10.3338 34.5708 9.5739C34.5708 8.94534 34.7662 8.39671 35.1568 7.92796C35.5474 7.45921 36.0763 7.09521 36.7436 6.83596C37.4109 6.57315 38.1637 6.44177 39.0019 6.44177C39.8483 6.44177 40.5949 6.5714 41.2418 6.83065C41.8929 7.0899 42.4056 7.44677 42.7799 7.90127C43.1542 8.35227 43.3496 8.87077 43.3658 9.45671H41.547ZM49.0199 17.6651C48.141 17.6651 47.374 17.4894 46.7189 17.1378C46.0638 16.7863 45.5552 16.2944 45.193 15.6623C44.8309 15.0302 44.6498 14.2916 44.6498 13.4464C44.6498 12.5976 44.8309 11.8555 45.193 11.2198C45.5552 10.5842 46.0638 10.0906 46.7189 9.73902C47.374 9.38746 48.141 9.21165 49.0199 9.21165C49.8988 9.21165 50.6657 9.38746 51.3209 9.73902C51.9759 10.0906 52.4846 10.5842 52.8466 11.2198C53.2088 11.8555 53.3899 12.5976 53.3899 13.4464C53.3899 14.2916 53.2088 15.0302 52.8466 15.6623C52.4846 16.2944 51.9759 16.7863 51.3209 17.1378C50.6657 17.4894 49.8988 17.6651 49.0199 17.6651ZM49.026 16.3281C49.5956 16.3281 50.0676 16.1968 50.442 15.934C50.8163 15.6712 51.093 15.3214 51.272 14.8846C51.4551 14.4478 51.5467 13.9666 51.5467 13.4411C51.5467 12.9191 51.4551 12.4396 51.272 12.0028C51.093 11.5625 50.8163 11.2092 50.442 10.9428C50.0676 10.6765 49.5956 10.5433 49.026 10.5433C48.4523 10.5433 47.9762 10.6765 47.5978 10.9428C47.2235 11.2092 46.9447 11.5625 46.7616 12.0028C46.5826 12.4396 46.4931 12.9191 46.4931 13.4411C46.4931 13.9666 46.5826 14.4478 46.7616 14.8846C46.9447 15.3214 47.2235 15.6712 47.5978 15.934C47.9762 16.1968 48.4523 16.3281 49.026 16.3281ZM56.6789 6.59096V17.5H54.854V6.59096H56.6789ZM61.2893 17.6811C60.6952 17.6811 60.1581 17.5853 59.678 17.3935C59.1979 17.1981 58.8174 16.9158 58.5367 16.5465C58.2599 16.1772 58.1217 15.7245 58.1217 15.1882C58.1217 14.7266 58.2233 14.3466 58.4268 14.0483C58.6302 13.75 58.9049 13.5139 59.2508 13.3399C59.5966 13.1658 59.9832 13.0345 60.4104 12.9457C60.8376 12.8569 61.273 12.7895 61.7165 12.7433C62.278 12.6865 62.7337 12.6403 63.0836 12.6048C63.4336 12.5657 63.6879 12.5036 63.8466 12.4183C64.0053 12.3331 64.0846 12.1946 64.0846 12.0028V11.9656C64.0846 11.5004 63.934 11.14 63.633 10.8843C63.3359 10.6286 62.8924 10.5007 62.3024 10.5007C61.688 10.5007 61.2038 10.6197 60.8498 10.8576C60.4999 11.092 60.2578 11.353 60.1235 11.6406L58.4085 11.2997C58.6119 10.8026 58.909 10.4013 59.2995 10.0959C59.6943 9.78696 60.1479 9.56321 60.6606 9.42471C61.1733 9.28271 61.7125 9.21165 62.278 9.21165C62.6524 9.21165 63.0491 9.25071 63.4682 9.32884C63.8914 9.40346 64.286 9.5419 64.6522 9.74434C65.0225 9.94677 65.3256 10.2361 65.5617 10.6126C65.7976 10.9855 65.9156 11.4702 65.9156 12.0668V17.5H64.1334V16.3814H64.0602C63.9422 16.5874 63.7652 16.7898 63.5292 16.9886C63.2932 17.1875 62.9901 17.3526 62.6198 17.484C62.2496 17.6155 61.806 17.6811 61.2893 17.6811ZM61.686 16.4027C62.1906 16.4027 62.6218 16.3157 62.9799 16.1417C63.342 15.9677 63.6167 15.7405 63.8038 15.4599C63.9951 15.1758 64.0907 14.8722 64.0907 14.549V13.4943C64.0256 13.5511 63.8995 13.6044 63.7123 13.6541C63.5292 13.7003 63.3197 13.7411 63.0836 13.7766C62.8477 13.8086 62.6178 13.8388 62.394 13.8672C62.1702 13.8921 61.983 13.9134 61.8325 13.9311C61.4785 13.9702 61.155 14.0359 60.8621 14.1282C60.5732 14.2205 60.3412 14.3537 60.1663 14.5277C59.9953 14.6981 59.9099 14.9255 59.9099 15.2095C59.9099 15.6037 60.0768 15.902 60.4104 16.1044C60.744 16.3033 61.1692 16.4027 61.686 16.4027ZM69.5983 12.6421V17.5H67.7734V9.31821H69.5251V10.6499H69.641C69.8566 10.2166 70.1944 9.86865 70.6542 9.60584C71.118 9.34309 71.7017 9.21165 72.4056 9.21165C73.0444 9.21165 73.6044 9.32884 74.0842 9.56321C74.5648 9.79409 74.9364 10.1385 75.2014 10.5966C75.4657 11.0547 75.5981 11.6211 75.5981 12.2958V17.5H73.7727V12.4876C73.7727 11.8945 73.5958 11.4311 73.2421 11.0973C72.8883 10.76 72.4021 10.5913 71.7833 10.5913C71.3602 10.5913 70.9838 10.6712 70.6542 10.831C70.3286 10.9908 70.0703 11.2251 69.8791 11.5341C69.6919 11.8395 69.5983 12.2088 69.5983 12.6421ZM80.2007 17.6811C79.6063 17.6811 79.0692 17.5853 78.5894 17.3935C78.1096 17.1981 77.7286 16.9158 77.4479 16.5465C77.1715 16.1772 77.0333 15.7245 77.0333 15.1882C77.0333 14.7266 77.135 14.3466 77.3383 14.0483C77.5417 13.75 77.816 13.5139 78.1619 13.3399C78.5078 13.1658 78.8945 13.0345 79.322 12.9457C79.7488 12.8569 80.1842 12.7895 80.6282 12.7433C81.1897 12.6865 81.6451 12.6403 81.9953 12.6048C82.3448 12.5657 82.599 12.5036 82.758 12.4183C82.917 12.3331 82.9958 12.1946 82.9958 12.0028V11.9656C82.9958 11.5004 82.8454 11.14 82.5446 10.8843C82.2474 10.6286 81.8041 10.5007 81.214 10.5007C80.5996 10.5007 80.1155 10.6197 79.761 10.8576C79.4115 11.092 79.1695 11.353 79.0348 11.6406L77.3197 11.2997C77.5231 10.8026 77.8203 10.4013 78.2113 10.0959C78.6059 9.78696 79.0592 9.56321 79.5719 9.42471C80.0847 9.28271 80.6239 9.21165 81.1897 9.21165C81.5635 9.21165 81.9602 9.25071 82.3799 9.32884C82.8024 9.40346 83.1977 9.5419 83.5636 9.74434C83.9339 9.94677 84.2368 10.2361 84.4731 10.6126C84.7087 10.9855 84.8269 11.4702 84.8269 12.0668V17.5H83.0452V16.3814H82.9714C82.854 16.5874 82.6764 16.7898 82.4408 16.9886C82.2044 17.1875 81.9015 17.3526 81.5313 17.484C81.161 17.6155 80.7177 17.6811 80.2007 17.6811ZM80.5974 16.4027C81.1016 16.4027 81.5334 16.3157 81.8915 16.1417C82.2531 15.9677 82.5281 15.7405 82.715 15.4599C82.9062 15.1758 83.0022 14.8722 83.0022 14.549V13.4943C82.937 13.5511 82.811 13.6044 82.6234 13.6541C82.4408 13.7003 82.2309 13.7411 81.9953 13.7766C81.759 13.8086 81.5291 13.8388 81.3057 13.8672C81.0815 13.8921 80.8946 13.9134 80.7435 13.9311C80.3898 13.9702 80.0661 14.0359 79.7732 14.1282C79.4846 14.2205 79.2525 14.3537 79.0778 14.5277C78.9067 14.6981 78.8214 14.9255 78.8214 15.2095C78.8214 15.6037 78.9883 15.902 79.322 16.1044C79.6557 16.3033 80.0804 16.4027 80.5974 16.4027ZM86.5442 17.5V6.59096H94.8205V8.49259H89.1874V11.092H94.2712V12.9936H89.1874V17.5H86.5442ZM96.025 6.59096H99.2848L102.727 13.9205H102.873L106.316 6.59096H109.575V17.5H107.011V10.3995H106.907L103.673 17.4468H101.927L98.6926 10.3729H98.5888V17.5H96.025V6.59096Z" fill="white"/>
</svg>
