<svg width="98" height="16" viewBox="0 0 98 16" fill="none" xmlns="http://www.w3.org/2000/svg">
<path d="M21.561 4.83912C23.3222 4.85512 24.7122 6.27844 24.6873 8.03902C24.6623 9.80024 23.2268 11.1896 21.4726 11.1506C19.7383 11.1122 18.3783 9.71961 18.3828 7.98718C18.3873 6.22724 19.8042 4.82313 21.561 4.83912Z" fill="#C74AE3"/>
<path d="M25.5377 14.7319C22.7992 16.9475 17.9058 16.1546 15.3712 13.1729C12.5831 9.89301 12.9087 4.97221 16.1064 2.05838C19.2652 -0.819605 24.1522 -0.660891 27.1314 2.41677C30.0233 5.40419 30.1514 10.3608 27.4448 13.1582C26.8129 12.4932 26.1803 11.827 25.5173 11.1294C26.5434 9.68822 26.8614 8.03899 26.2479 6.26817C25.3319 3.62441 22.4304 2.22926 19.7843 3.13035C17.1695 4.02056 15.7382 6.84863 16.5548 9.51094C17.3803 12.2027 20.1806 13.7316 22.8681 12.9022C23.4031 12.7371 23.7 12.8337 24.0459 13.2337C24.5032 13.7636 25.0325 14.2308 25.5377 14.7319ZM0 4.85125C0 4.21255 0.121666 3.61225 0.36436 3.05227C0.607054 2.49229 0.937652 2.00206 1.35616 1.58224C1.77466 1.16241 2.26196 0.830261 2.81933 0.586429C3.3767 0.342597 3.97356 0.220361 4.60991 0.220361H11.664V3.31146H4.60991C4.39525 3.31146 4.19523 3.35114 4.00923 3.42986C3.82322 3.50922 3.6608 3.61865 3.52129 3.75817C3.38179 3.89832 3.27286 4.06152 3.19452 4.24839C3.11553 4.43527 3.07667 4.63622 3.07667 4.85189C3.07667 5.06756 3.11553 5.27044 3.19452 5.46051C3.27286 5.65059 3.38243 5.8157 3.52129 5.95586C3.6608 6.09601 3.82322 6.20545 4.00923 6.28417C4.19523 6.36352 4.39525 6.40256 4.60991 6.40256H7.68659C8.32295 6.40256 8.92108 6.52288 9.48227 6.76351C10.0435 7.00414 10.5327 7.33437 10.9512 7.7542C11.3697 8.17402 11.6978 8.66617 11.9372 9.22999C12.1767 9.79381 12.2965 10.3954 12.2965 11.0341C12.2965 11.6734 12.1767 12.2731 11.9372 12.8331C11.6978 13.3931 11.369 13.8833 10.9512 14.3031C10.5333 14.7229 10.0435 15.0551 9.48227 15.2996C8.92108 15.544 8.32231 15.6656 7.68659 15.6656H0.857392V12.5745H7.68659C7.90125 12.5745 8.10064 12.5348 8.28727 12.4561C8.47327 12.3774 8.63571 12.2673 8.7752 12.1278C8.91471 11.9883 9.02363 11.8245 9.10198 11.6376C9.18034 11.4507 9.21983 11.2498 9.21983 11.0341C9.21983 10.8184 9.18034 10.6175 9.10198 10.4306C9.02299 10.2437 8.91407 10.0805 8.7752 9.94037C8.63571 9.80021 8.47327 9.69078 8.28727 9.61206C8.10127 9.53334 7.90125 9.49366 7.68659 9.49366H4.60991C3.97356 9.49366 3.3767 9.37143 2.81933 9.12759C2.26196 8.88376 1.77402 8.55161 1.35616 8.13115C0.93829 7.71132 0.607054 7.21918 0.36436 6.65599C0.121666 6.09217 0 5.49059 0 4.85125ZM42.1548 15.6656H31.391V0.219721H34.4677V12.5745H42.1542V15.6656H42.1548ZM42.5409 4.85125C42.5409 4.21255 42.6626 3.61225 42.9052 3.05227C43.148 2.49229 43.4785 2.00206 43.8971 1.58224C44.3155 1.16241 44.8028 0.830261 45.3602 0.585789C45.9176 0.341957 46.5145 0.219721 47.1508 0.219721H54.2048V3.31082H47.1508C46.9361 3.31082 46.7362 3.3505 46.5501 3.42922C46.3641 3.50858 46.2017 3.61801 46.0622 3.75753C45.9227 3.89768 45.8138 4.06088 45.7355 4.24775C45.6564 4.43463 45.6176 4.63558 45.6176 4.85125C45.6176 5.06693 45.6564 5.2698 45.7355 5.45987C45.8138 5.64995 45.9234 5.81506 46.0622 5.95522C46.2017 6.09537 46.3641 6.20481 46.5501 6.28353C46.7362 6.36288 46.9361 6.40192 47.1508 6.40192H50.2275C50.8638 6.40192 51.462 6.52224 52.0232 6.76287C52.5843 7.0035 53.0735 7.33373 53.4921 7.75356C53.9106 8.17338 54.2386 8.66553 54.4782 9.22935C54.7176 9.79317 54.8374 10.3948 54.8374 11.0335C54.8374 11.6728 54.7176 12.2725 54.4782 12.8324C54.2386 13.3924 53.9099 13.8826 53.4921 14.3025C53.0742 14.7223 52.5843 15.0544 52.0232 15.2989C51.462 15.5434 50.8632 15.665 50.2275 15.665H43.3983V12.5739H50.2275C50.4422 12.5739 50.6422 12.5342 50.8282 12.4555C51.0142 12.3768 51.1766 12.2667 51.3161 12.1272C51.4556 11.987 51.5645 11.8238 51.6429 11.637C51.7212 11.4501 51.7607 11.2491 51.7607 11.0335C51.7607 10.8178 51.7212 10.6168 51.6429 10.43C51.5639 10.2431 51.4549 10.0799 51.3161 9.93973C51.1766 9.79957 51.0142 9.69014 50.8282 9.61142C50.6422 9.5327 50.4422 9.49302 50.2275 9.49302H47.1508C46.5145 9.49302 45.9176 9.37079 45.3602 9.12695C44.8028 8.88312 44.3149 8.55097 43.8971 8.13051C43.4792 7.71068 43.148 7.21854 42.9052 6.65471C42.662 6.09217 42.5409 5.49059 42.5409 4.85125ZM69.1284 14.0823C68.4136 14.6999 67.613 15.1741 66.7268 15.5043C65.8408 15.8346 64.9223 15.9997 63.9718 15.9997C63.2432 15.9997 62.5406 15.9043 61.8653 15.7143C61.1901 15.5242 60.5576 15.2548 59.9677 14.9066C59.3779 14.5585 58.8403 14.1399 58.3543 13.6516C57.8682 13.1633 57.4516 12.6232 57.1051 12.0305C56.7586 11.4379 56.4904 10.8024 56.3012 10.124C56.112 9.44566 56.0171 8.73977 56.0171 8.00763C56.0171 7.27549 56.112 6.56768 56.3012 5.88546C56.4904 5.20324 56.7586 4.56582 57.1051 3.97384C57.4516 3.38122 57.8676 2.84108 58.3543 2.35277C58.8403 1.86447 59.3779 1.44656 59.9677 1.09777C60.5576 0.749624 61.1901 0.480193 61.8653 0.290119C62.5406 0.100045 63.2432 0.00468836 63.9718 0.00468836C64.9223 0.00468836 65.8408 0.167883 66.7268 0.494912C67.613 0.821942 68.4136 1.29745 69.1284 1.92207L67.4989 4.6151C67.0485 4.1268 66.516 3.75177 65.9013 3.48938C65.2866 3.22762 64.6433 3.09643 63.9718 3.09643C63.2928 3.09643 62.6565 3.2257 62.0635 3.48426C61.4698 3.74281 60.9519 4.09288 60.5092 4.53446C60.0659 4.97605 59.7161 5.49699 59.4588 6.09601C59.2014 6.69567 59.0727 7.33309 59.0727 8.00763C59.0727 8.68281 59.2014 9.31639 59.4588 9.90901C59.7161 10.5016 60.0659 11.02 60.5092 11.4654C60.9525 11.9109 61.4704 12.2622 62.0635 12.5208C62.6565 12.7793 63.2928 12.9086 63.9718 12.9086C64.6433 12.9086 65.2866 12.7774 65.9013 12.5156C66.516 12.2539 67.0485 11.8782 67.4989 11.3899L69.1284 14.0823ZM83.0333 15.6656H79.9566V12.5745H73.8026V15.6656H70.7361V6.40256C70.7361 5.54819 70.8966 4.74566 71.2183 3.99496C71.54 3.2449 71.9776 2.58957 72.5318 2.02894C73.0853 1.46896 73.7364 1.02738 74.4829 0.704186C75.2295 0.380996 76.0282 0.219721 76.8792 0.219721C77.7296 0.219721 78.5284 0.380996 79.2756 0.704186C80.0222 1.02738 80.6744 1.46896 81.2324 2.02894C81.7898 2.58892 82.2293 3.24426 82.551 3.99496C82.8727 4.74566 83.0333 5.54819 83.0333 6.40256V15.6656ZM79.9566 9.49366V6.40256C79.9566 5.9789 79.8763 5.57827 79.7151 5.20132C79.5546 4.82437 79.3348 4.49606 79.0558 4.21575C78.7768 3.93544 78.4501 3.71465 78.0749 3.55337C77.6997 3.3921 77.3009 3.31082 76.8792 3.31082C76.4576 3.31082 76.0588 3.39146 75.6836 3.55337C75.3084 3.71465 74.9816 3.93544 74.7026 4.21575C74.4236 4.49606 74.2039 4.82437 74.0433 5.20132C73.8829 5.57827 73.802 5.9789 73.802 6.40256V9.49366H79.9566ZM98 15.6656H94.7086L88.7802 5.49763V15.6656H85.7036V0.219721H88.9948L94.9233 10.3986V0.219721H98V15.6656Z" fill="#F2FEFB"/>
</svg>
