<svg width="20" height="20" viewBox="0 0 20 20" fill="none" xmlns="http://www.w3.org/2000/svg">
<path fill-rule="evenodd" clip-rule="evenodd" d="M10 0C10.7211 0 11.3864 0.388209 11.7412 1.01602L14.1766 5.32553L18.384 6.14867C19.117 6.29206 19.709 6.83192 19.9192 7.54861C20.1294 8.2653 19.9227 9.03939 19.3833 9.55595L16.1832 12.6204L16.9235 17.7122C17.0308 18.4509 16.718 19.1878 16.1121 19.6237C15.5061 20.0595 14.7079 20.1216 14.0418 19.7848L10 17.7411L5.95819 19.7848C5.2921 20.1216 4.49389 20.0595 3.88794 19.6237C3.28199 19.1878 2.96915 18.4509 3.07654 17.7122L3.81684 12.6204L0.616731 9.55595C0.0773034 9.03939 -0.129355 8.2653 0.0808312 7.54861C0.291018 6.83192 0.883024 6.29206 1.616 6.14867L5.82344 5.32553L8.25879 1.01602C8.61358 0.388209 9.27887 0 10 0ZM7.11145 7.11146L2 8.11146L5.94427 11.8885L5.05573 18L10 15.5L14.9443 18L14.0557 11.8885L18 8.11146L12.8885 7.11146L10 2L7.11145 7.11146Z" fill="#FFFAF5"/>
</svg>
