<svg width="28" height="40" viewBox="0 0 28 40" fill="none" xmlns="http://www.w3.org/2000/svg">
<path fill-rule="evenodd" clip-rule="evenodd" d="M18.5643 0.625824C19.1636 1.25962 19.2831 2.20876 18.8594 2.9713C18.8307 3.02301 18.8021 3.07439 18.7736 3.12548C18.1917 4.17002 17.6768 5.09443 17.6942 6.25113C17.7105 7.3309 18.4881 9.29499 21.0675 11.4714C24.5588 14.4172 26.2847 18.0488 27.1379 20.8943C27.5655 22.3203 27.7802 23.568 27.8885 24.4683C27.9427 24.9194 27.9706 25.286 27.9849 25.5475C27.992 25.6784 27.9958 25.7832 27.9978 25.8594C27.9988 25.8975 27.9993 25.9285 27.9996 25.952L27.9999 25.9817L28 25.9923L28 25.9965C28 25.9965 28 26 26 26H28C28 33.732 21.732 40 14 40C6.26801 40 0 33.732 0 26C0 22.1416 0.541637 18.7743 1.31063 16.2746C1.69285 15.0321 2.15073 13.94 2.66859 13.0928C2.92717 12.6698 3.23139 12.2571 3.58987 11.9118C3.93413 11.5802 4.44293 11.2003 5.11653 11.0488C5.66622 10.9251 6.24258 11.039 6.70389 11.3625C7.16519 11.686 7.46864 12.1891 7.53962 12.7481C7.60375 13.2531 7.81357 13.9927 8.14753 14.7735C8.13084 13.447 8.22887 12.0387 8.50002 10.6236C9.25541 6.68128 11.3982 2.5461 16.2389 0.200217C17.0239 -0.180201 17.9649 -0.00797057 18.5643 0.625824ZM24 26.0053C23.9971 31.5257 19.5211 36 14 36C8.47715 36 4 31.5229 4 26C4 22.583 4.47006 19.6801 5.08448 17.6138C5.24203 17.9025 5.40952 18.1856 5.58602 18.4592C6.59113 20.0173 8.37155 22 10.8889 22C11.5191 22 12.1124 21.703 12.49 21.1985C12.8676 20.6941 12.9854 20.0411 12.8079 19.4365C12.2888 17.6687 11.8306 14.4969 12.4286 11.3764C12.6836 10.0451 13.1226 8.75032 13.8186 7.57614C14.2236 9.80353 15.6424 12.1276 18.4881 14.5286C21.2189 16.8328 22.6042 19.7012 23.3065 22.0432C23.6567 23.211 23.8309 24.2289 23.9171 24.9458C23.9601 25.3033 23.9808 25.5832 23.9908 25.766C23.9958 25.8573 23.9981 25.9241 23.9992 25.964L24 26.0032L24 26.0053Z" fill="#676767"/>
</svg>
