<svg width="607" height="641" viewBox="0 0 607 641" fill="none" xmlns="http://www.w3.org/2000/svg">
<rect x="285.452" width="58.0144" height="354.193" rx="29.0072" transform="rotate(45 285.452 0)" fill="url(#paint0_linear_602_2763)"/>
<rect x="250.452" y="230" width="58.0144" height="354.193" rx="29.0072" transform="rotate(45 250.452 230)" fill="url(#paint1_linear_602_2763)"/>
<rect x="565.452" y="134" width="58.0144" height="354.193" rx="29.0072" transform="rotate(45 565.452 134)" fill="url(#paint2_linear_602_2763)"/>
<rect x="537.452" y="349" width="58.0144" height="354.193" rx="29.0072" transform="rotate(45 537.452 349)" fill="url(#paint3_linear_602_2763)"/>
<rect x="94.0003" y="88" width="424" height="451" rx="8" fill="#1C2222"/>
<path fill-rule="evenodd" clip-rule="evenodd" d="M489.874 114C489.43 115.725 487.864 117 486 117C484.136 117 482.57 115.725 482.126 114L473 114C472.448 114 472 113.552 472 113C472 112.448 472.448 112 473 112L482.126 112C482.57 110.275 484.136 109 486 109C487.864 109 489.43 110.275 489.874 112L491 112C491.553 112 492 112.448 492 113C492 113.552 491.553 114 491 114L489.874 114ZM488 113C488 111.895 487.105 111 486 111C484.896 111 484 111.895 484 113C484 114.105 484.896 115 486 115C487.105 115 488 114.105 488 113ZM478 117C476.136 117 474.57 118.275 474.126 120L473 120C472.448 120 472 120.448 472 121C472 121.552 472.448 122 473 122L474.126 122C474.57 123.725 476.136 125 478 125C479.864 125 481.43 123.725 481.874 122H491C491.553 122 492 121.552 492 121C492 120.448 491.553 120 491 120H481.874C481.43 118.275 479.864 117 478 117ZM478 123C476.896 123 476 122.105 476 121C476 119.895 476.896 119 478 119C479.105 119 480 119.895 480 121C480 122.105 479.105 123 478 123Z" fill="#FFFAF5"/>
<path d="M288.979 114.276H291.095C291.031 111.946 288.972 110.256 286.017 110.256C283.098 110.256 280.861 111.925 280.861 114.432C280.861 116.456 282.31 117.642 284.646 118.274L286.365 118.743C287.921 119.155 289.121 119.666 289.121 120.959C289.121 122.379 287.764 123.317 285.896 123.317C284.206 123.317 282.8 122.564 282.672 120.98H280.47C280.612 123.615 282.651 125.241 285.911 125.241C289.327 125.241 291.294 123.445 291.294 120.98C291.294 118.359 288.958 117.344 287.111 116.889L285.69 116.52C284.554 116.229 283.041 115.696 283.048 114.304C283.048 113.068 284.178 112.152 285.967 112.152C287.636 112.152 288.823 112.933 288.979 114.276ZM296.111 125H298.27L300.486 117.124H300.65L302.866 125H305.032L308.235 114.091H306.04L303.917 122.067H303.81L301.679 114.091H299.485L297.34 122.102H297.233L295.096 114.091H292.901L296.111 125ZM313.425 125.241C315.229 125.241 316.244 124.325 316.649 123.509H316.735V125H318.808V117.756C318.808 114.581 316.308 113.949 314.575 113.949C312.601 113.949 310.783 114.744 310.073 116.733L312.068 117.188C312.381 116.413 313.176 115.668 314.604 115.668C315.975 115.668 316.678 116.385 316.678 117.621V117.67C316.678 118.445 315.882 118.43 313.922 118.658C311.855 118.899 309.739 119.439 309.739 121.918C309.739 124.062 311.351 125.241 313.425 125.241ZM313.886 123.537C312.686 123.537 311.82 122.997 311.82 121.946C311.82 120.81 312.828 120.405 314.057 120.241C314.746 120.149 316.379 119.964 316.685 119.659V121.065C316.685 122.358 315.655 123.537 313.886 123.537ZM321.637 129.091H323.76V123.303H323.888C324.272 123.999 325.053 125.213 327.042 125.213C329.684 125.213 331.601 123.097 331.601 119.567C331.601 116.03 329.655 113.949 327.02 113.949C324.996 113.949 324.265 115.185 323.888 115.859H323.711V114.091H321.637V129.091ZM323.718 119.545C323.718 117.266 324.712 115.753 326.566 115.753C328.491 115.753 329.456 117.379 329.456 119.545C329.456 121.733 328.462 123.402 326.566 123.402C324.741 123.402 323.718 121.839 323.718 119.545Z" fill="white"/>
<line x1="94.0003" y1="146.5" x2="518" y2="146.5" stroke="#121616"/>
<path d="M119.148 185H121.256V180.057H126.091V178.29H121.256V175.131H126.603V173.364H119.148V185ZM128.307 185H130.364V179.869C130.364 178.761 131.199 177.977 132.33 177.977C132.676 177.977 133.108 178.04 133.284 178.097V176.205C133.097 176.17 132.773 176.148 132.546 176.148C131.546 176.148 130.711 176.716 130.392 177.727H130.301V176.273H128.307V185ZM138.098 185.17C140.655 185.17 142.28 183.369 142.28 180.67C142.28 177.966 140.655 176.159 138.098 176.159C135.541 176.159 133.916 177.966 133.916 180.67C133.916 183.369 135.541 185.17 138.098 185.17ZM138.11 183.523C136.695 183.523 136.002 182.261 136.002 180.665C136.002 179.068 136.695 177.79 138.11 177.79C139.502 177.79 140.195 179.068 140.195 180.665C140.195 182.261 139.502 183.523 138.11 183.523ZM144.026 185H146.083V179.693C146.083 178.619 146.799 177.892 147.685 177.892C148.554 177.892 149.151 178.477 149.151 179.375V185H151.168V179.557C151.168 178.574 151.753 177.892 152.747 177.892C153.577 177.892 154.236 178.381 154.236 179.46V185H156.299V179.142C156.299 177.193 155.174 176.159 153.571 176.159C152.304 176.159 151.338 176.784 150.952 177.756H150.861C150.526 176.767 149.679 176.159 148.503 176.159C147.333 176.159 146.458 176.761 146.094 177.756H145.992V176.273H144.026V185Z" fill="#676767"/>
<path d="M134.415 220.222C133.818 216.489 130.895 214.307 127.205 214.307C122.688 214.307 119.355 217.69 119.355 223.273C119.355 228.855 122.671 232.239 127.205 232.239C131.04 232.239 133.844 229.835 134.415 226.384L131.756 226.375C131.304 228.608 129.429 229.835 127.222 229.835C124.23 229.835 121.972 227.543 121.972 223.273C121.972 219.037 124.222 216.71 127.23 216.71C129.455 216.71 131.321 217.963 131.756 220.222H134.415ZM139.91 224.227C139.91 222.139 141.231 220.946 143.046 220.946C144.802 220.946 145.85 222.062 145.85 223.98V232H148.399V223.673C148.399 220.409 146.609 218.739 143.916 218.739C141.879 218.739 140.652 219.625 140.038 221.04H139.876V214.545H137.362V232H139.91V224.227ZM157.314 232.264C161.004 232.264 163.416 229.562 163.416 225.514C163.416 221.44 161.004 218.739 157.314 218.739C153.623 218.739 151.211 221.44 151.211 225.514C151.211 229.562 153.623 232.264 157.314 232.264ZM157.322 230.125C154.91 230.125 153.785 228.02 153.785 225.506C153.785 223 154.91 220.869 157.322 220.869C159.717 220.869 160.842 223 160.842 225.506C160.842 228.02 159.717 230.125 157.322 230.125ZM171.774 232.264C175.465 232.264 177.877 229.562 177.877 225.514C177.877 221.44 175.465 218.739 171.774 218.739C168.084 218.739 165.672 221.44 165.672 225.514C165.672 229.562 168.084 232.264 171.774 232.264ZM171.783 230.125C169.371 230.125 168.246 228.02 168.246 225.506C168.246 223 169.371 220.869 171.783 220.869C174.178 220.869 175.303 223 175.303 225.506C175.303 228.02 174.178 230.125 171.783 230.125ZM190.531 222.105C190.002 220.068 188.409 218.739 185.579 218.739C182.622 218.739 180.525 220.298 180.525 222.616C180.525 224.474 181.65 225.71 184.105 226.256L186.321 226.741C187.582 227.023 188.17 227.585 188.17 228.403C188.17 229.418 187.088 230.21 185.417 230.21C183.892 230.21 182.912 229.554 182.605 228.267L180.142 228.642C180.568 230.96 182.494 232.264 185.434 232.264C188.596 232.264 190.787 230.585 190.787 228.216C190.787 226.366 189.61 225.224 187.207 224.67L185.127 224.193C183.687 223.852 183.065 223.366 183.073 222.48C183.065 221.474 184.156 220.759 185.605 220.759C187.19 220.759 187.923 221.636 188.221 222.514L190.531 222.105ZM199.23 232.264C202.086 232.264 204.105 230.858 204.685 228.727L202.273 228.293C201.813 229.528 200.705 230.159 199.256 230.159C197.074 230.159 195.608 228.744 195.54 226.222H204.847V225.318C204.847 220.588 202.017 218.739 199.051 218.739C195.404 218.739 193 221.517 193 225.54C193 229.605 195.37 232.264 199.23 232.264ZM195.549 224.312C195.651 222.455 196.997 220.844 199.068 220.844C201.046 220.844 202.341 222.31 202.35 224.312H195.549ZM217.836 232.29C220 232.29 221.219 231.19 221.705 230.21H221.807V232H224.296V223.307C224.296 219.497 221.296 218.739 219.216 218.739C216.847 218.739 214.665 219.693 213.813 222.08L216.208 222.625C216.583 221.696 217.537 220.801 219.25 220.801C220.895 220.801 221.739 221.662 221.739 223.145V223.205C221.739 224.134 220.784 224.116 218.432 224.389C215.952 224.679 213.412 225.327 213.412 228.301C213.412 230.875 215.347 232.29 217.836 232.29ZM218.39 230.244C216.949 230.244 215.909 229.597 215.909 228.335C215.909 226.972 217.12 226.486 218.594 226.29C219.421 226.179 221.381 225.957 221.747 225.591V227.278C221.747 228.83 220.512 230.244 218.39 230.244ZM237.5 222.105C236.971 220.068 235.377 218.739 232.548 218.739C229.591 218.739 227.494 220.298 227.494 222.616C227.494 224.474 228.619 225.71 231.073 226.256L233.289 226.741C234.551 227.023 235.139 227.585 235.139 228.403C235.139 229.418 234.056 230.21 232.386 230.21C230.86 230.21 229.88 229.554 229.573 228.267L227.11 228.642C227.537 230.96 229.463 232.264 232.403 232.264C235.565 232.264 237.755 230.585 237.755 228.216C237.755 226.366 236.579 225.224 234.176 224.67L232.096 224.193C230.656 223.852 230.034 223.366 230.042 222.48C230.034 221.474 231.125 220.759 232.573 220.759C234.159 220.759 234.892 221.636 235.19 222.514L237.5 222.105ZM250.367 222.105C249.838 220.068 248.245 218.739 245.415 218.739C242.458 218.739 240.361 220.298 240.361 222.616C240.361 224.474 241.486 225.71 243.941 226.256L246.157 226.741C247.418 227.023 248.006 227.585 248.006 228.403C248.006 229.418 246.924 230.21 245.253 230.21C243.728 230.21 242.747 229.554 242.441 228.267L239.978 228.642C240.404 230.96 242.33 232.264 245.27 232.264C248.432 232.264 250.622 230.585 250.622 228.216C250.622 226.366 249.446 225.224 247.043 224.67L244.963 224.193C243.523 223.852 242.901 223.366 242.909 222.48C242.901 221.474 243.992 220.759 245.441 220.759C247.026 220.759 247.759 221.636 248.057 222.514L250.367 222.105ZM259.066 232.264C261.921 232.264 263.941 230.858 264.521 228.727L262.109 228.293C261.649 229.528 260.541 230.159 259.092 230.159C256.91 230.159 255.444 228.744 255.376 226.222H264.683V225.318C264.683 220.588 261.853 218.739 258.887 218.739C255.24 218.739 252.836 221.517 252.836 225.54C252.836 229.605 255.206 232.264 259.066 232.264ZM255.385 224.312C255.487 222.455 256.833 220.844 258.904 220.844C260.882 220.844 262.177 222.31 262.186 224.312H255.385ZM273.621 218.909H270.936V215.773H268.388V218.909H266.47V220.955H268.388V228.685C268.38 231.062 270.195 232.213 272.206 232.17C273.016 232.162 273.561 232.009 273.86 231.898L273.399 229.793C273.229 229.827 272.914 229.903 272.505 229.903C271.678 229.903 270.936 229.631 270.936 228.156V220.955H273.621V218.909Z" fill="#FFFAF5"/>
<path fill-rule="evenodd" clip-rule="evenodd" d="M286.938 220.266C286.577 220.621 286.577 221.197 286.938 221.552L294.346 229.734C294.707 230.089 295.293 230.089 295.655 229.734L303.062 221.552C303.424 221.197 303.424 220.621 303.062 220.266C302.701 219.911 302.115 219.911 301.753 220.266L295 227.805L288.248 220.266C287.886 219.911 287.3 219.911 286.938 220.266Z" fill="#FFFAF5"/>
<rect x="94.0003" y="311" width="424" height="228" rx="8" fill="#121616"/>
<circle cx="146" cy="311" r="28" fill="#1C2222"/>
<circle cx="146" cy="311" r="24" fill="#121616"/>
<path fill-rule="evenodd" clip-rule="evenodd" d="M146.333 317.543C145.882 317.082 145.891 316.344 146.351 315.893C146.812 315.443 147.551 315.451 148.001 315.912L150.667 318.638V300.5C150.667 299.856 151.189 299.333 151.834 299.333C152.478 299.333 153 299.856 153 300.5L153 318.638L155.666 315.912C156.117 315.451 156.855 315.443 157.316 315.893C157.777 316.344 157.785 317.082 157.334 317.543L152.668 322.316C152.448 322.54 152.148 322.667 151.834 322.667C151.52 322.667 151.219 322.54 150.999 322.316L146.333 317.543ZM134.666 304.457C134.216 304.918 134.224 305.656 134.685 306.107C135.145 306.557 135.884 306.549 136.334 306.088L139 303.362V321.5C139 322.144 139.523 322.667 140.167 322.667C140.811 322.667 141.334 322.144 141.334 321.5V303.362L143.999 306.088C144.45 306.549 145.189 306.557 145.649 306.107C146.11 305.656 146.118 304.918 145.668 304.457L141.001 299.684C140.782 299.46 140.481 299.333 140.167 299.333C139.853 299.333 139.552 299.46 139.333 299.684L134.666 304.457Z" fill="#FFFAF5"/>
<path d="M118.637 359.131H122.233V369H124.324V359.131H127.921V357.364H118.637V359.131ZM132.161 369.17C134.718 369.17 136.343 367.369 136.343 364.67C136.343 361.966 134.718 360.159 132.161 360.159C129.604 360.159 127.979 361.966 127.979 364.67C127.979 367.369 129.604 369.17 132.161 369.17ZM132.172 367.523C130.757 367.523 130.064 366.261 130.064 364.665C130.064 363.068 130.757 361.79 132.172 361.79C133.564 361.79 134.257 363.068 134.257 364.665C134.257 366.261 133.564 367.523 132.172 367.523Z" fill="#676767"/>
<path d="M177.438 403.131H179.978C179.901 400.335 177.429 398.307 173.884 398.307C170.381 398.307 167.696 400.31 167.696 403.318C167.696 405.747 169.435 407.17 172.239 407.929L174.301 408.491C176.168 408.986 177.608 409.599 177.608 411.151C177.608 412.855 175.98 413.98 173.739 413.98C171.711 413.98 170.023 413.077 169.87 411.176H167.228C167.398 414.338 169.844 416.29 173.756 416.29C177.855 416.29 180.216 414.134 180.216 411.176C180.216 408.031 177.412 406.812 175.196 406.267L173.492 405.824C172.128 405.474 170.313 404.835 170.321 403.165C170.321 401.682 171.676 400.582 173.824 400.582C175.827 400.582 177.25 401.52 177.438 403.131ZM198.525 407.273C198.525 401.69 195.184 398.307 190.667 398.307C186.133 398.307 182.801 401.69 182.801 407.273C182.801 412.847 186.133 416.239 190.667 416.239C195.184 416.239 198.525 412.855 198.525 407.273ZM195.917 407.273C195.917 411.526 193.667 413.835 190.667 413.835C187.659 413.835 185.417 411.526 185.417 407.273C185.417 403.02 187.659 400.71 190.667 400.71C193.667 400.71 195.917 403.02 195.917 407.273ZM201.809 416H212.351V413.733H204.442V398.545H201.809V416Z" fill="#FFFAF5"/>
<circle cx="138" cy="407" r="20" fill="#090B0B"/>
<path d="M130.497 411.786C130.637 411.646 130.829 411.564 131.034 411.564H149.548C149.886 411.564 150.055 411.973 149.816 412.212L146.159 415.869C146.019 416.009 145.826 416.091 145.622 416.091H127.108C126.77 416.091 126.6 415.683 126.84 415.443L130.497 411.786Z" fill="url(#paint4_linear_602_2763)"/>
<path d="M130.497 398.131C130.643 397.991 130.835 397.909 131.034 397.909H149.548C149.886 397.909 150.056 398.317 149.816 398.557L146.159 402.214C146.019 402.354 145.827 402.436 145.622 402.436H127.108C126.77 402.436 126.601 402.027 126.84 401.788L130.497 398.131Z" fill="url(#paint5_linear_602_2763)"/>
<path d="M146.159 404.915C146.019 404.775 145.826 404.693 145.622 404.693H127.108C126.77 404.693 126.6 405.101 126.84 405.34L130.497 408.998C130.637 409.138 130.829 409.219 131.034 409.219H149.548C149.886 409.219 150.055 408.811 149.816 408.572L146.159 404.915Z" fill="url(#paint6_linear_602_2763)"/>
<rect x="118" y="459" width="376" height="56" rx="8" fill="url(#paint7_linear_602_2763)"/>
<path d="M247.921 484.185C247.424 481.074 244.988 479.256 241.913 479.256C238.149 479.256 235.372 482.075 235.372 486.727C235.372 491.379 238.135 494.199 241.913 494.199C245.109 494.199 247.446 492.196 247.921 489.32L245.706 489.312C245.329 491.173 243.767 492.196 241.927 492.196C239.434 492.196 237.552 490.286 237.552 486.727C237.552 483.197 239.427 481.259 241.934 481.259C243.788 481.259 245.343 482.303 245.706 484.185H247.921ZM254.972 494.22C258.048 494.22 260.057 491.969 260.057 488.595C260.057 485.2 258.048 482.949 254.972 482.949C251.897 482.949 249.887 485.2 249.887 488.595C249.887 491.969 251.897 494.22 254.972 494.22ZM254.979 492.438C252.969 492.438 252.032 490.683 252.032 488.588C252.032 486.5 252.969 484.724 254.979 484.724C256.975 484.724 257.913 486.5 257.913 488.588C257.913 490.683 256.975 492.438 254.979 492.438ZM264.551 487.523C264.551 485.783 265.617 484.788 267.094 484.788C268.536 484.788 269.409 485.733 269.409 487.317V494H271.533V487.061C271.533 484.362 270.049 482.949 267.818 482.949C266.178 482.949 265.105 483.709 264.601 484.866H264.466V483.091H262.428V494H264.551V487.523ZM276.505 487.523C276.505 485.783 277.57 484.788 279.047 484.788C280.489 484.788 281.363 485.733 281.363 487.317V494H283.486V487.061C283.486 484.362 282.002 482.949 279.772 482.949C278.131 482.949 277.059 483.709 276.554 484.866H276.419V483.091H274.381V494H276.505V487.523ZM291.036 494.22C293.415 494.22 295.098 493.048 295.581 491.273L293.571 490.911C293.188 491.94 292.265 492.466 291.057 492.466C289.239 492.466 288.017 491.287 287.961 489.185H295.716V488.432C295.716 484.49 293.358 482.949 290.887 482.949C287.847 482.949 285.844 485.264 285.844 488.616C285.844 492.004 287.818 494.22 291.036 494.22ZM287.968 487.594C288.053 486.045 289.175 484.703 290.901 484.703C292.549 484.703 293.628 485.925 293.635 487.594H287.968ZM302.668 494.22C305.246 494.22 306.915 492.672 307.149 490.548H305.082C304.812 491.727 303.896 492.423 302.682 492.423C300.885 492.423 299.727 490.925 299.727 488.545C299.727 486.209 300.906 484.739 302.682 484.739C304.031 484.739 304.855 485.591 305.082 486.614H307.149C306.922 484.412 305.125 482.949 302.646 482.949C299.571 482.949 297.582 485.264 297.582 488.595C297.582 491.884 299.5 494.22 302.668 494.22ZM314.512 483.091H312.275V480.477H310.152V483.091H308.554V484.795H310.152V491.237C310.144 493.219 311.657 494.178 313.333 494.142C314.008 494.135 314.463 494.007 314.711 493.915L314.328 492.161C314.186 492.189 313.923 492.253 313.582 492.253C312.893 492.253 312.275 492.026 312.275 490.797V484.795H314.512V483.091ZM324.519 494H326.679L328.894 486.124H329.058L331.274 494H333.44L336.643 483.091H334.448L332.325 491.067H332.218L330.088 483.091H327.893L325.748 491.102H325.642L323.504 483.091H321.309L324.519 494ZM341.833 494.241C343.637 494.241 344.653 493.325 345.057 492.509H345.143V494H347.217V486.756C347.217 483.581 344.717 482.949 342.984 482.949C341.009 482.949 339.191 483.744 338.481 485.733L340.477 486.188C340.789 485.413 341.584 484.668 343.012 484.668C344.383 484.668 345.086 485.385 345.086 486.621V486.67C345.086 487.445 344.29 487.43 342.33 487.658C340.263 487.899 338.147 488.439 338.147 490.918C338.147 493.062 339.759 494.241 341.833 494.241ZM342.295 492.537C341.094 492.537 340.228 491.997 340.228 490.946C340.228 489.81 341.236 489.405 342.465 489.241C343.154 489.149 344.788 488.964 345.093 488.659V490.065C345.093 491.358 344.063 492.537 342.295 492.537ZM352.169 479.455H350.045V494H352.169V479.455ZM357.149 479.455H355.026V494H357.149V479.455ZM364.708 494.22C367.087 494.22 368.77 493.048 369.253 491.273L367.243 490.911C366.86 491.94 365.936 492.466 364.729 492.466C362.911 492.466 361.689 491.287 361.632 489.185H369.388V488.432C369.388 484.49 367.03 482.949 364.559 482.949C361.519 482.949 359.516 485.264 359.516 488.616C359.516 492.004 361.49 494.22 364.708 494.22ZM361.64 487.594C361.725 486.045 362.847 484.703 364.573 484.703C366.22 484.703 367.3 485.925 367.307 487.594H361.64ZM376.837 483.091H374.599V480.477H372.476V483.091H370.878V484.795H372.476V491.237C372.469 493.219 373.981 494.178 375.658 494.142C376.332 494.135 376.787 494.007 377.035 493.915L376.652 492.161C376.51 492.189 376.247 492.253 375.906 492.253C375.217 492.253 374.599 492.026 374.599 490.797V484.795H376.837V483.091Z" fill="white"/>
<path d="M125.279 254.364H126.472C126.417 252.827 125.001 251.679 123.032 251.679C121.083 251.679 119.552 252.812 119.552 254.523C119.552 255.895 120.546 256.71 122.137 257.168L123.39 257.526C124.464 257.824 125.418 258.202 125.418 259.216C125.418 260.33 124.344 261.065 122.932 261.065C121.719 261.065 120.645 260.528 120.546 259.375H119.273C119.393 261.045 120.745 262.179 122.932 262.179C125.279 262.179 126.611 260.886 126.611 259.236C126.611 257.327 124.802 256.71 123.748 256.432L122.714 256.153C121.958 255.955 120.745 255.557 120.745 254.463C120.745 253.489 121.64 252.773 122.992 252.773C124.225 252.773 125.16 253.359 125.279 254.364ZM129.653 251.818H128.479V262H129.653V251.818ZM131.802 262H132.975V254.364H131.802V262ZM132.398 253.091C132.856 253.091 133.234 252.733 133.234 252.295C133.234 251.858 132.856 251.5 132.398 251.5C131.941 251.5 131.563 251.858 131.563 252.295C131.563 252.733 131.941 253.091 132.398 253.091ZM135.124 264.864H136.297V260.827H136.397C136.655 261.244 137.152 262.159 138.624 262.159C140.533 262.159 141.865 260.628 141.865 258.202C141.865 255.795 140.533 254.264 138.604 254.264C137.113 254.264 136.655 255.179 136.397 255.577H136.257V254.364H135.124V264.864ZM136.277 258.182C136.277 256.472 137.033 255.318 138.465 255.318C139.956 255.318 140.692 256.571 140.692 258.182C140.692 259.812 139.936 261.105 138.465 261.105C137.053 261.105 136.277 259.912 136.277 258.182ZM143.655 264.864H144.829V260.827H144.928C145.186 261.244 145.684 262.159 147.155 262.159C149.064 262.159 150.397 260.628 150.397 258.202C150.397 255.795 149.064 254.264 147.135 254.264C145.644 254.264 145.186 255.179 144.928 255.577H144.789V254.364H143.655V264.864ZM144.809 258.182C144.809 256.472 145.564 255.318 146.996 255.318C148.488 255.318 149.223 256.571 149.223 258.182C149.223 259.812 148.468 261.105 146.996 261.105C145.584 261.105 144.809 259.912 144.809 258.182ZM154.434 262.179C155.766 262.179 156.462 261.463 156.701 260.966H156.76V262H157.934V256.969C157.934 254.543 156.084 254.264 155.11 254.264C153.956 254.264 152.644 254.662 152.047 256.054L153.161 256.452C153.419 255.895 154.031 255.298 155.15 255.298C156.228 255.298 156.76 255.87 156.76 256.849V256.889C156.76 257.456 156.184 257.406 154.792 257.585C153.375 257.769 151.829 258.082 151.829 259.832C151.829 261.324 152.982 262.179 154.434 262.179ZM154.613 261.125C153.678 261.125 153.002 260.707 153.002 259.892C153.002 258.997 153.817 258.719 154.732 258.599C155.229 258.54 156.561 258.401 156.76 258.162V259.236C156.76 260.19 156.005 261.125 154.613 261.125ZM163.158 265.023C164.987 265.023 166.459 264.188 166.459 262.219V254.364H165.325V255.577H165.206C164.947 255.179 164.47 254.264 162.979 254.264C161.05 254.264 159.717 255.795 159.717 258.142C159.717 260.528 161.109 261.881 162.959 261.881C164.45 261.881 164.927 261.006 165.186 260.588H165.285V262.139C165.285 263.412 164.39 263.989 163.158 263.989C161.77 263.989 161.283 263.258 160.97 262.835L160.035 263.491C160.513 264.292 161.452 265.023 163.158 265.023ZM163.118 260.827C161.646 260.827 160.89 259.713 160.89 258.122C160.89 256.571 161.626 255.318 163.118 255.318C164.55 255.318 165.305 256.472 165.305 258.122C165.305 259.812 164.53 260.827 163.118 260.827ZM171.808 262.159C173.359 262.159 174.493 261.384 174.851 260.23L173.717 259.912C173.419 260.707 172.728 261.105 171.808 261.105C170.431 261.105 169.481 260.215 169.427 258.58H174.97V258.082C174.97 255.239 173.28 254.264 171.689 254.264C169.621 254.264 168.248 255.895 168.248 258.241C168.248 260.588 169.601 262.159 171.808 262.159ZM169.427 257.565C169.506 256.377 170.346 255.318 171.689 255.318C172.962 255.318 173.777 256.273 173.777 257.565H169.427ZM184.013 254.364H182.383V252.534H181.209V254.364H180.056V255.358H181.209V260.131C181.209 261.463 182.283 262.099 183.278 262.099C183.715 262.099 183.993 262.02 184.153 261.96L183.914 260.906C183.814 260.926 183.655 260.966 183.397 260.966C182.88 260.966 182.383 260.807 182.383 259.812V255.358H184.013V254.364ZM188.799 262.159C190.867 262.159 192.259 260.588 192.259 258.222C192.259 255.835 190.867 254.264 188.799 254.264C186.73 254.264 185.338 255.835 185.338 258.222C185.338 260.588 186.73 262.159 188.799 262.159ZM188.799 261.105C187.227 261.105 186.512 259.753 186.512 258.222C186.512 256.69 187.227 255.318 188.799 255.318C190.37 255.318 191.085 256.69 191.085 258.222C191.085 259.753 190.37 261.105 188.799 261.105ZM195.223 251.818H194.05V262H195.223V251.818ZM200.574 262.159C202.125 262.159 203.258 261.384 203.616 260.23L202.483 259.912C202.185 260.707 201.493 261.105 200.574 261.105C199.197 261.105 198.247 260.215 198.192 258.58H203.736V258.082C203.736 255.239 202.045 254.264 200.454 254.264C198.386 254.264 197.014 255.895 197.014 258.241C197.014 260.588 198.366 262.159 200.574 262.159ZM198.192 257.565C198.272 256.377 199.112 255.318 200.454 255.318C201.727 255.318 202.542 256.273 202.542 257.565H198.192ZM205.52 262H206.694V257.168C206.694 256.134 207.509 255.378 208.623 255.378C208.936 255.378 209.259 255.438 209.339 255.457V254.264C209.204 254.254 208.896 254.244 208.722 254.244C207.807 254.244 207.012 254.761 206.734 255.517H206.654V254.364H205.52V262ZM212.977 262.179C214.309 262.179 215.005 261.463 215.244 260.966H215.303V262H216.477V256.969C216.477 254.543 214.627 254.264 213.653 254.264C212.499 254.264 211.187 254.662 210.59 256.054L211.704 256.452C211.962 255.895 212.574 255.298 213.693 255.298C214.771 255.298 215.303 255.87 215.303 256.849V256.889C215.303 257.456 214.727 257.406 213.335 257.585C211.918 257.769 210.371 258.082 210.371 259.832C210.371 261.324 211.525 262.179 212.977 262.179ZM213.156 261.125C212.221 261.125 211.545 260.707 211.545 259.892C211.545 258.997 212.36 258.719 213.275 258.599C213.772 258.54 215.104 258.401 215.303 258.162V259.236C215.303 260.19 214.548 261.125 213.156 261.125ZM219.791 257.406C219.791 256.074 220.617 255.318 221.74 255.318C222.829 255.318 223.49 256.029 223.49 257.227V262H224.664V257.148C224.664 255.199 223.625 254.264 222.078 254.264C220.925 254.264 220.209 254.781 219.851 255.557H219.752V254.364H218.618V262H219.791V257.406ZM229.91 262.159C231.6 262.159 232.714 261.125 232.913 259.773H231.739C231.521 260.608 230.825 261.105 229.91 261.105C228.518 261.105 227.623 259.952 227.623 258.182C227.623 256.452 228.538 255.318 229.91 255.318C230.944 255.318 231.56 255.955 231.739 256.651H232.913C232.714 255.219 231.501 254.264 229.89 254.264C227.822 254.264 226.45 255.895 226.45 258.222C226.45 260.509 227.762 262.159 229.91 262.159ZM237.83 262.159C239.381 262.159 240.514 261.384 240.872 260.23L239.739 259.912C239.44 260.707 238.749 261.105 237.83 261.105C236.452 261.105 235.503 260.215 235.448 258.58H240.992V258.082C240.992 255.239 239.301 254.264 237.71 254.264C235.642 254.264 234.27 255.895 234.27 258.241C234.27 260.588 235.622 262.159 237.83 262.159ZM235.448 257.565C235.528 256.377 236.368 255.318 237.71 255.318C238.983 255.318 239.798 256.273 239.798 257.565H235.448ZM250.273 251.818H249.041L246.495 253.509V254.761L248.981 253.111H249.041V262H250.273V251.818ZM258.392 260.091C258.392 261.205 259.088 262.139 260.381 262.139C261.653 262.139 262.349 261.205 262.349 260.091V259.554C262.349 258.44 261.673 257.506 260.381 257.506C259.108 257.506 258.392 258.44 258.392 259.554V260.091ZM253.321 254.264C253.321 255.378 254.017 256.312 255.31 256.312C256.582 256.312 257.278 255.378 257.278 254.264V253.727C257.278 252.614 256.602 251.679 255.31 251.679C254.037 251.679 253.321 252.614 253.321 253.727V254.264ZM253.699 262H254.832L261.832 251.818H260.699L253.699 262ZM259.406 259.554C259.406 258.938 259.685 258.361 260.381 258.361C261.097 258.361 261.335 258.938 261.335 259.554V260.091C261.335 260.707 261.077 261.284 260.381 261.284C259.665 261.284 259.406 260.707 259.406 260.091V259.554ZM254.335 253.727C254.335 253.111 254.614 252.534 255.31 252.534C256.026 252.534 256.264 253.111 256.264 253.727V254.264C256.264 254.881 256.006 255.457 255.31 255.457C254.594 255.457 254.335 254.881 254.335 254.264V253.727Z" fill="#676767"/>
<path d="M245.64 264.784H263.523V265.739H245.64V264.784Z" fill="#676767"/>
<rect x="427" y="105" width="27" height="24" rx="4" fill="#121616"/>
<path d="M436.237 111.818H434.741L432.2 113.479V114.95L434.636 113.359H434.696V122H436.237V111.818ZM444.306 120.091C444.311 121.239 445.032 122.209 446.379 122.209C447.712 122.209 448.442 121.239 448.442 120.091V119.554C448.442 118.401 447.731 117.436 446.379 117.436C445.052 117.436 444.311 118.406 444.306 119.554V120.091ZM439.185 114.264C439.185 115.413 439.911 116.382 441.258 116.382C442.586 116.382 443.322 115.418 443.317 114.264V113.727C443.322 112.574 442.606 111.609 441.258 111.609C439.936 111.609 439.185 112.574 439.185 113.727V114.264ZM439.603 122H440.791L447.791 111.818H446.603L439.603 122ZM445.464 119.554C445.469 118.982 445.718 118.43 446.379 118.43C447.065 118.43 447.279 118.982 447.279 119.554V120.091C447.279 120.663 447.045 121.214 446.379 121.214C445.703 121.214 445.469 120.658 445.464 120.091V119.554ZM440.349 113.727C440.349 113.161 440.597 112.604 441.258 112.604C441.945 112.604 442.158 113.156 442.158 113.727V114.264C442.158 114.836 441.925 115.388 441.258 115.388C440.582 115.388 440.349 114.836 440.349 114.264V113.727Z" fill="white"/>
<defs>
<linearGradient id="paint0_linear_602_2763" x1="285.452" y1="0" x2="354.269" y2="2.11144" gradientUnits="userSpaceOnUse">
<stop stop-color="#0AD171"/>
<stop offset="1" stop-color="#29F592"/>
</linearGradient>
<linearGradient id="paint1_linear_602_2763" x1="250.452" y1="230" x2="319.269" y2="232.111" gradientUnits="userSpaceOnUse">
<stop stop-color="#0AD171"/>
<stop offset="1" stop-color="#29F592"/>
</linearGradient>
<linearGradient id="paint2_linear_602_2763" x1="565.452" y1="134" x2="634.269" y2="136.111" gradientUnits="userSpaceOnUse">
<stop stop-color="#0AD171"/>
<stop offset="1" stop-color="#29F592"/>
</linearGradient>
<linearGradient id="paint3_linear_602_2763" x1="537.452" y1="349" x2="606.269" y2="351.111" gradientUnits="userSpaceOnUse">
<stop stop-color="#0AD171"/>
<stop offset="1" stop-color="#29F592"/>
</linearGradient>
<linearGradient id="paint4_linear_602_2763" x1="147.779" y1="395.724" x2="134.966" y2="420.267" gradientUnits="userSpaceOnUse">
<stop stop-color="#00FFA3"/>
<stop offset="1" stop-color="#DC1FFF"/>
</linearGradient>
<linearGradient id="paint5_linear_602_2763" x1="142.177" y1="392.799" x2="129.363" y2="417.342" gradientUnits="userSpaceOnUse">
<stop stop-color="#00FFA3"/>
<stop offset="1" stop-color="#DC1FFF"/>
</linearGradient>
<linearGradient id="paint6_linear_602_2763" x1="144.96" y1="394.252" x2="132.147" y2="418.795" gradientUnits="userSpaceOnUse">
<stop stop-color="#00FFA3"/>
<stop offset="1" stop-color="#DC1FFF"/>
</linearGradient>
<linearGradient id="paint7_linear_602_2763" x1="118" y1="459" x2="290.91" y2="676.474" gradientUnits="userSpaceOnUse">
<stop stop-color="#B85900"/>
<stop offset="1" stop-color="#FF810A"/>
</linearGradient>
</defs>
</svg>
