<svg width="14" height="14" viewBox="0 0 14 14" fill="none" xmlns="http://www.w3.org/2000/svg">
<path fill-rule="evenodd" clip-rule="evenodd" d="M12.8333 7.00002C12.8333 10.2217 10.2217 12.8334 7.00001 12.8334C3.77835 12.8334 1.16668 10.2217 1.16668 7.00002C1.16668 3.77836 3.77835 1.16669 7.00001 1.16669C10.2217 1.16669 12.8333 3.77836 12.8333 7.00002ZM9.86163 3.31343C9.0714 2.69915 8.07842 2.33335 7.00001 2.33335C4.42268 2.33335 2.33334 4.42269 2.33334 7.00002C2.33334 8.07844 2.69914 9.07142 3.31343 9.86165L9.86163 3.31343ZM10.6866 4.13839C11.3009 4.92862 11.6667 5.9216 11.6667 7.00002C11.6667 9.57735 9.57734 11.6667 7.00001 11.6667C5.9216 11.6667 4.92862 11.3009 4.13839 10.6866L10.6866 4.13839Z" fill="#FD499D"/>
</svg>
