<svg width="23" height="25" viewBox="0 0 23 25" fill="none" xmlns="http://www.w3.org/2000/svg">
<path fill-rule="evenodd" clip-rule="evenodd" d="M11.5472 22.5778C6.66257 22.5778 2.70283 18.1208 2.70283 12.6228C2.70283 7.12471 6.66257 2.66766 11.5472 2.66766C16.4318 2.66766 20.3915 7.12471 20.3915 12.6228C20.3915 18.1208 16.4318 22.5778 11.5472 22.5778ZM11.5472 4.65868C7.63949 4.65868 4.4717 8.22432 4.4717 12.6228C4.4717 17.0212 7.63949 20.5868 11.5472 20.5868C15.4548 20.5868 18.6226 17.0212 18.6226 12.6228C18.6226 8.22432 15.4548 4.65868 11.5472 4.65868ZM11.5472 11.3784C12.1577 11.3784 12.6527 11.9355 12.6527 12.6228V16.6048C12.6527 17.292 12.1577 17.8492 11.5472 17.8492C10.9366 17.8492 10.4416 17.292 10.4416 16.6048V12.6228C10.4416 11.9355 10.9366 11.3784 11.5472 11.3784ZM11.5472 7.64521C10.9366 7.64521 10.4416 8.20234 10.4416 8.88959C10.4416 9.57685 10.9366 10.134 11.5472 10.134C12.1577 10.134 12.6527 9.57685 12.6527 8.88959C12.6527 8.20234 12.1577 7.64521 11.5472 7.64521Z" fill="#676767"/>
</svg>
