<svg width="14" height="14" viewBox="0 0 14 14" fill="none" xmlns="http://www.w3.org/2000/svg">
<path fill-rule="evenodd" clip-rule="evenodd" d="M6.41669 10.4516V11.6306C4.30575 11.3674 2.63265 9.69424 2.36945 7.58329H3.5484C3.79427 9.04895 4.95104 10.2057 6.41669 10.4516ZM4.74018 7.58329C4.9512 8.40326 5.59673 9.0488 6.41669 9.25984V7.58329H4.74018ZM6.41669 6.41662H4.74021C4.95127 5.59672 5.59677 4.95123 6.41669 4.7402V6.41662ZM7.58335 7.58329V9.25984C8.40331 9.0488 9.04884 8.40326 9.25986 7.58329H7.58335ZM9.25983 6.41662H7.58335V4.7402C8.40327 4.95123 9.04877 5.59672 9.25983 6.41662ZM10.4516 7.58329C10.2058 9.04895 9.049 10.2057 7.58335 10.4516V11.6306C9.69429 11.3674 11.3674 9.69424 11.6306 7.58329H10.4516ZM11.6306 6.41662H10.4516C10.2057 4.95103 9.04896 3.79429 7.58335 3.54841V2.36946C9.69425 2.63268 11.3673 4.30574 11.6306 6.41662ZM3.54842 6.41662H2.36947C2.63272 4.30574 4.30579 2.63268 6.41669 2.36946V3.54841C4.95108 3.79429 3.79433 4.95103 3.54842 6.41662ZM1.16669 7.00002C1.16669 3.77836 3.77836 1.16669 7.00002 1.16669C10.2217 1.16669 12.8334 3.77836 12.8334 7.00002C12.8334 10.2217 10.2217 12.8334 7.00002 12.8334C3.77836 12.8334 1.16669 10.2217 1.16669 7.00002Z" fill="#FFFAF5"/>
</svg>
