<svg width="26" height="30" viewBox="0 0 26 30" fill="none" xmlns="http://www.w3.org/2000/svg">
<ellipse cx="13.2076" cy="15.2395" rx="12.7358" ry="14.3353" fill="#090B0B"/>
<path d="M21.682 9.91249C20.4478 8.71 19.0954 8.7039 17.6633 9.00299C17.6991 8.8565 17.7238 8.75578 17.7183 8.77715C16.8964 9.11897 16.0498 9.50963 15.1812 9.80872C14.8459 9.9247 14.4528 9.82398 14.0845 9.82703C13.8975 9.83008 13.7106 9.83619 13.5237 9.85145C12.5644 9.92775 11.5913 10.1536 10.6485 10.0498C9.67821 9.94301 8.73814 9.52183 7.77883 9.09455C7.85854 9.21053 7.93825 9.32956 8.0647 9.50963C6.60236 9.42722 5.23074 9.48826 4.18896 10.7762C4.03503 9.95827 4.38412 8.99384 5.11254 8.33461C6.72056 6.87881 8.39729 7.14128 10.1263 8.11792C9.99432 7.95921 9.86238 7.80051 9.73044 7.64181C9.77167 7.56551 9.76892 7.57161 9.81015 7.49226C10.2967 7.64181 10.8107 7.73031 11.267 7.95921C12.361 8.50857 13.378 8.42006 14.4033 7.75168C14.8074 7.48921 15.2802 7.35187 15.72 7.15959C15.7667 7.22979 15.7612 7.22063 15.8079 7.29083L15.3654 7.92564C16.9184 6.75368 18.5292 6.21347 20.2774 7.37018C21.0855 7.91343 21.5803 8.70695 21.682 9.91249Z" fill="url(#paint0_linear_1_1024)"/>
<path d="M16.0883 12.1649L16.9047 12.1191C16.4374 11.8047 15.9783 11.4965 15.5605 11.2157C16.5363 11.3164 17.5204 11.4141 18.4742 11.5117C18.4824 11.4995 18.4055 11.6185 18.3258 11.7345C18.3697 11.8047 18.4577 11.823 18.5209 11.7742C18.9442 11.4415 19.3703 11.1058 19.7771 10.7854C19.9585 11.4598 19.7826 12.0397 19.2356 12.4395C18.4275 13.0316 16.9294 12.9095 16.0883 12.1649Z" fill="url(#paint1_linear_1_1024)"/>
<path d="M6.0636 11.53C6.56662 11.8566 7.04215 12.1679 7.52044 12.4792C7.57266 12.3968 7.56167 12.2839 7.4957 12.2137C7.44072 12.1526 7.39674 12.1099 7.39125 12.1007C8.30658 11.9207 9.27964 11.7314 10.1895 11.5514C10.107 11.6368 9.93659 11.8413 9.74143 12.0092C9.52977 12.1892 9.29613 12.3388 8.94154 12.5952C9.35385 12.5433 9.61498 12.5097 9.89261 12.4731C9.30163 13.3032 7.56717 13.6054 6.78652 13.1476C6.19829 12.7966 5.94266 12.2442 6.0636 11.53Z" fill="url(#paint2_linear_1_1024)"/>
<path d="M14.0075 21.2629C14.0075 21.2629 17.4929 20.3595 19.5077 18.4582C19.2768 17.8447 18.8975 17.2282 18.9442 17.3839C18.5017 16.1356 18.0069 15.8701 17.7568 15.8304C17.3417 16.337 16.9651 16.7948 16.5886 17.2526C16.5034 17.1763 16.5391 17.2068 16.4539 17.1305C16.5061 17.0481 16.5611 16.9688 16.6133 16.8864C17.5204 15.4947 17.2785 13.9992 15.9811 13.0683C15.5385 12.7509 15.0823 12.4518 14.615 12.1741C14.0762 11.8536 13.5512 12.0734 13.3176 12.696C13.2213 12.9493 13.1526 13.2148 13.0289 13.6116C12.8997 13.3003 12.82 13.1111 12.7431 12.9218C12.4022 12.0856 11.8717 11.9238 11.1928 12.4579C10.8409 12.7357 10.4863 13.0073 10.1455 13.2972C8.87558 14.3746 8.7134 15.8914 9.71669 17.2831C9.83489 17.4479 9.96133 17.6097 10.085 17.7745C10.0355 17.8355 10.0493 17.8172 10.0026 17.8752C9.57926 17.5487 9.1587 17.219 8.7189 16.8772C7.90252 18.2109 7.49845 19.6454 7.45447 21.1836L7.56442 21.2782C7.56717 21.2812 10.731 22.3067 14.0075 21.2629ZM16.0003 14.6432C14.8349 16.1478 14.1972 16.2912 13.5402 15.1803C14.3841 15.1315 15.0245 14.2281 16.0003 14.6432ZM12.6469 15.2291C12.1273 16.4194 11.3852 16.3248 10.184 14.9575C11.0856 14.4295 11.8085 15.2719 12.6469 15.2291Z" fill="url(#paint3_linear_1_1024)"/>
<path d="M19.0401 20.393C17.1022 21.0431 15.6509 21.3666 14.4387 21.5558C12.7537 21.9923 10.8653 22.3036 8.91922 22.3066C8.867 22.3219 8.81202 22.3341 8.75705 22.3493C8.03413 22.5813 8.1963 22.4531 7.67679 22.7797L10.6042 22.9933C10.6922 22.9994 10.7087 23.1337 10.6289 23.1673C10.1672 23.3657 9.75209 23.5457 9.28756 23.7472C10.1617 24.855 11.0962 25.6089 12.2947 25.8561C13.9137 26.1918 15.4695 25.8805 16.9483 25.1511C17.7537 24.7543 18.6608 23.6648 18.9934 22.7614C19.4304 21.5711 20.1039 20.0359 19.0401 20.393Z" fill="url(#paint4_linear_1_1024)"/>
<defs>
<linearGradient id="paint0_linear_1_1024" x1="4.15318" y1="6.72794" x2="16.7068" y2="16.9101" gradientUnits="userSpaceOnUse">
<stop stop-color="#FD499D"/>
<stop offset="1" stop-color="#FF810A"/>
</linearGradient>
<linearGradient id="paint1_linear_1_1024" x1="15.5605" y1="10.7854" x2="19.9601" y2="12.5259" gradientUnits="userSpaceOnUse">
<stop stop-color="#FD499D"/>
<stop offset="1" stop-color="#FF810A"/>
</linearGradient>
<linearGradient id="paint2_linear_1_1024" x1="6.03428" y1="11.53" x2="10.2129" y2="13.3061" gradientUnits="userSpaceOnUse">
<stop stop-color="#FD499D"/>
<stop offset="1" stop-color="#FF810A"/>
</linearGradient>
<linearGradient id="paint3_linear_1_1024" x1="7.45447" y1="12.0277" x2="21.0306" y2="15.1866" gradientUnits="userSpaceOnUse">
<stop stop-color="#FD499D"/>
<stop offset="1" stop-color="#FF810A"/>
</linearGradient>
<linearGradient id="paint4_linear_1_1024" x1="7.67679" y1="20.3404" x2="19.9275" y2="25.1864" gradientUnits="userSpaceOnUse">
<stop stop-color="#FD499D"/>
<stop offset="1" stop-color="#FF810A"/>
</linearGradient>
</defs>
</svg>
