<svg width="21" height="21" viewBox="0 0 21 21" fill="none" xmlns="http://www.w3.org/2000/svg">
<path fill-rule="evenodd" clip-rule="evenodd" d="M6.41822 15.976C6.41822 16.4363 6.79132 16.8094 7.25156 16.8094H16.4182C16.8785 16.8094 17.2516 16.4363 17.2516 15.976V10.1427C17.2516 9.68246 16.8785 9.30937 16.4182 9.30937V13.476C16.4182 14.8567 15.2989 15.976 13.9182 15.976H6.41822ZM16.4182 7.6427C16.4182 6.26199 15.2989 5.1427 13.9182 5.1427H4.75156C3.37085 5.1427 2.25156 6.26199 2.25156 7.6427V13.476C2.25156 14.8567 3.37085 15.976 4.75156 15.976C4.75156 17.3567 5.87084 18.476 7.25156 18.476H16.4182C17.7989 18.476 18.9182 17.3567 18.9182 15.976V10.1427C18.9182 8.76199 17.7989 7.6427 16.4182 7.6427ZM13.9182 14.3094C14.3785 14.3094 14.7516 13.9363 14.7516 13.476L14.7516 7.6427C14.7516 7.18246 14.3785 6.80937 13.9182 6.80937L4.75156 6.80937C4.29132 6.80937 3.91822 7.18246 3.91822 7.6427L3.91822 13.476C3.91822 13.9363 4.29132 14.3094 4.75156 14.3094L13.9182 14.3094ZM13.9182 12.6427C13.9182 12.1825 13.5451 11.8094 13.0849 11.8094C12.6247 11.8094 12.2516 12.1825 12.2516 12.6427C12.2516 13.1029 12.6247 13.476 13.0849 13.476C13.5451 13.476 13.9182 13.1029 13.9182 12.6427ZM5.58489 7.6427C6.04513 7.6427 6.41822 8.0158 6.41822 8.47603C6.41822 8.93627 6.04513 9.30937 5.58489 9.30937C5.12465 9.30937 4.75156 8.93627 4.75156 8.47603C4.75156 8.0158 5.12465 7.6427 5.58489 7.6427ZM11.4182 10.5594C11.4182 9.63889 10.672 8.8927 9.75156 8.8927C8.83108 8.8927 8.08489 9.63889 8.08489 10.5594C8.08489 11.4798 8.83108 12.226 9.75156 12.226C10.672 12.226 11.4182 11.4798 11.4182 10.5594Z" fill="#FFFAF5"/>
</svg>
