<svg width="26" height="29" viewBox="0 0 26 29" fill="none" xmlns="http://www.w3.org/2000/svg">
<g clip-path="url(#clip0_1_1036)">
<path d="M13.2075 28.8024C20.2654 28.8024 25.9434 22.4113 25.9434 14.4671C25.9434 6.52285 20.2654 0.131729 13.2075 0.131729C6.14972 0.131729 0.471699 6.52285 0.471699 14.4671C0.471699 22.4113 6.14972 28.8024 13.2075 28.8024Z" fill="#2775CA"/>
<path d="M16.7098 16.7367C16.7098 14.6462 15.5954 13.9295 13.3666 13.6309C11.7747 13.3919 11.4563 12.9141 11.4563 12.0778C11.4563 11.2414 11.987 10.704 13.0482 10.704C14.0034 10.704 14.5341 11.0624 14.7994 11.9583C14.8525 12.1375 15.0117 12.257 15.1709 12.257H16.0199C16.2322 12.257 16.3914 12.0778 16.3914 11.8389V11.7792C16.1791 10.465 15.2239 9.44966 14.0034 9.33025V7.89672C14.0034 7.65775 13.8442 7.47856 13.579 7.41878H12.783C12.5707 7.41878 12.4115 7.59797 12.3583 7.89672V9.27047C10.7664 9.50944 9.7582 10.704 9.7582 12.1973C9.7582 14.1684 10.8195 14.9448 13.0482 15.2436C14.5341 15.5422 15.0117 15.9006 15.0117 16.8563C15.0117 17.812 14.2687 18.469 13.2606 18.469C11.8808 18.469 11.4032 17.8119 11.244 16.9159C11.191 16.6771 11.0318 16.5576 10.8726 16.5576H9.97038C9.7582 16.5576 9.599 16.7367 9.599 16.9757V17.0355C9.81118 18.5287 10.6603 19.6038 12.4115 19.9026V21.3361C12.4115 21.5749 12.5707 21.7541 12.8359 21.8139H13.6319C13.8442 21.8139 14.0034 21.6347 14.0565 21.3361V19.9026C15.6485 19.6038 16.7098 18.3495 16.7098 16.7367Z" fill="white"/>
<path d="M10.5012 23.0085C6.3621 21.3361 4.23941 16.1395 5.77841 11.5402C6.5744 9.03151 8.32558 7.12018 10.5012 6.22423C10.7136 6.10481 10.8196 5.92562 10.8196 5.62687V4.79069C10.8196 4.55172 10.7136 4.37253 10.5012 4.3129C10.4481 4.3129 10.342 4.3129 10.2889 4.37253C5.24771 6.16445 2.48823 12.1973 4.08021 17.8717C5.0354 21.2165 7.31728 23.785 10.2889 24.8602C10.5012 24.9796 10.7136 24.8602 10.7665 24.6212C10.8196 24.5615 10.8196 24.5018 10.8196 24.3824V23.546C10.8196 23.3668 10.6604 23.128 10.5012 23.0085ZM16.1263 4.37253C15.914 4.25312 15.7017 4.37253 15.6487 4.6115C15.5956 4.67128 15.5956 4.73091 15.5956 4.85047V5.68665C15.5956 5.92562 15.7548 6.16445 15.914 6.284C20.0531 7.95636 22.1758 13.1529 20.6368 17.7523C19.8408 20.261 18.0896 22.1723 15.914 23.0682C15.7017 23.1877 15.5956 23.3668 15.5956 23.6656V24.5018C15.5956 24.7407 15.7017 24.9199 15.914 24.9796C15.9671 24.9796 16.0732 24.9796 16.1263 24.9199C21.1675 23.128 23.927 17.0951 22.335 11.4208C21.3798 8.01614 19.0448 5.44768 16.1263 4.37253Z" fill="white"/>
</g>
<defs>
<clipPath id="clip0_1_1036">
<rect width="25.4717" height="28.6707" fill="white" transform="translate(0.471699 0.131729)"/>
</clipPath>
</defs>
</svg>
